<svg width="60" height="56" viewBox="0 0 60 56" fill="none" xmlns="http://www.w3.org/2000/svg">
<rect width="60" height="56" rx="8" fill="#2E8C2C"/>
<path d="M45.6606 17.9732C44.9938 14.8246 43.3599 11.9666 40.9355 9.70885L40.3216 10.4043C41.4915 11.4939 42.4681 12.729 43.2244 14.0756C43.9437 15.3565 44.4628 16.7348 44.7674 18.1727C45.0615 19.5618 45.1529 20.9915 45.0389 22.4223C44.9264 23.8316 44.6171 25.2181 44.1192 26.5436C43.088 29.2889 41.3132 31.6235 38.9867 33.2942C37.7627 34.1732 36.401 34.8546 34.9401 35.3194C33.5672 35.756 32.104 36.0015 30.5822 36.0513C30.5872 35.5569 30.5922 35.0657 30.5975 34.5767C32.9304 34.5185 35.1039 33.9392 36.9005 32.8931C38.8021 31.7859 40.1424 30.2398 40.7767 28.4221C41.2404 27.0933 41.3185 25.6345 41.0091 24.0863C40.9826 23.9539 40.9019 23.8396 40.7875 23.7727C40.6732 23.7058 40.5364 23.6929 40.4118 23.737L38.7061 24.3435C39.6642 23.442 40.3675 22.3824 40.7767 21.2098C41.2404 19.881 41.3185 18.4222 41.0091 16.874C40.9826 16.7416 40.9019 16.6273 40.7875 16.5604C40.6732 16.4935 40.5364 16.4806 40.4118 16.5247L38.5498 17.1869C38.33 17.265 37.1633 17.6929 35.7862 18.4379C34.9323 18.8999 34.1899 19.3796 33.5641 19.8726C34.1798 18.3673 34.4239 16.9467 34.2891 15.6368C34.1218 14.0108 32.7351 11.5977 31.9902 10.3011C31.8764 10.1029 31.7781 9.93183 31.7119 9.81095C31.4185 9.27485 31.11 8.73991 30.7947 8.22094C30.7255 8.1071 30.6123 8.02917 30.4835 8.00664C30.3546 7.98411 30.2228 8.01955 30.1209 8.10335C29.9259 8.26413 25.3579 12.1068 26.1587 17.9051C26.2515 18.5774 26.4071 19.202 26.605 19.7791C26.005 19.3188 25.3028 18.8705 24.5028 18.4377C23.1257 17.6927 21.959 17.2648 21.7392 17.1866L19.8772 16.5245C19.7529 16.4803 19.616 16.4933 19.5015 16.5602C19.3873 16.627 19.3064 16.7414 19.2799 16.8737C18.9705 18.422 19.0487 19.8808 19.5123 21.2095C19.9215 22.3822 20.6248 23.4417 21.5829 24.3433L19.8772 23.7368C19.7529 23.6927 19.616 23.7056 19.5015 23.7725C19.3873 23.8394 19.3064 23.9537 19.2799 24.0861C18.9705 25.6343 19.0487 27.0931 19.5123 28.4218C20.1466 30.2398 21.4869 31.7859 23.3885 32.8928C25.1831 33.9378 27.3535 34.5171 29.6835 34.5763C29.6785 35.0675 29.6732 35.5609 29.6682 36.0576C28.0566 36.0278 26.5081 35.7797 25.0604 35.3192C23.5991 34.8544 22.2378 34.173 21.0137 33.294C18.6872 31.6232 16.9125 29.2887 15.8813 26.5434C15.3834 25.2179 15.074 23.8314 14.9616 22.4221C14.8475 20.9912 14.9387 19.5615 15.233 18.1725C15.5374 16.7346 16.0565 15.3563 16.776 14.0754C17.5324 12.7288 18.509 11.4937 19.6788 10.4041L19.0649 9.70861C16.6405 11.9669 15.0066 14.8246 14.3398 17.9732C14.0266 19.4529 13.9292 20.9757 14.0505 22.4991C14.1701 23.9978 14.4991 25.4723 15.0283 26.8818C16.1251 29.8022 18.0138 32.2856 20.4898 34.0639C21.7915 34.9988 23.2381 35.7229 24.7898 36.2165C26.4245 36.7364 28.1773 37 30 37C31.8227 37 33.5757 36.7364 35.2101 36.2165C36.7618 35.7229 38.2084 34.9988 39.5102 34.0639C41.9862 32.2856 43.8747 29.802 44.9717 26.8818C45.5011 25.4726 45.8299 23.998 45.9494 22.4991C46.0707 20.9757 45.9736 19.4531 45.6601 17.9732H45.6606ZM30.6731 27.3625C31.7372 27.3309 32.7675 27.1905 33.7434 26.9466C33.1345 27.4078 32.6279 27.881 32.2287 28.3634C31.607 29.1068 31.0721 29.9335 30.6368 30.8165C30.6384 30.6609 30.64 30.5052 30.6416 30.3496C30.6521 29.3563 30.6624 28.3627 30.6729 27.3623L30.6731 27.3625ZM29.7278 30.3395C29.7258 30.5458 29.7235 30.7524 29.7214 30.959C29.2743 30.0222 28.7156 29.1464 28.0605 28.3634C27.6613 27.881 27.1548 27.4076 26.5458 26.9466C27.5654 27.2015 28.6441 27.3435 29.7589 27.3665C29.7486 28.3622 29.7381 29.3511 29.7278 30.3398V30.3395ZM40.2034 24.8048C40.3661 25.9835 40.2702 27.0917 39.9164 28.1054C39.3571 29.7086 38.1584 31.0817 36.4499 32.0765C34.792 33.0419 32.7778 33.5789 30.6073 33.6376C30.6078 33.5982 30.6082 33.5585 30.6085 33.5191C31.0401 31.8394 31.8391 30.2696 32.9227 28.9741C32.9231 28.9734 32.9238 28.9727 32.9243 28.9723C33.6223 28.1284 34.7591 27.267 36.2121 26.4809C37.5586 25.7523 38.7207 25.332 38.8487 25.2864L40.2032 24.8048H40.2034ZM36.2121 19.2686C37.5586 18.54 38.7207 18.1196 38.8489 18.0741L40.2034 17.5925C40.3661 18.7712 40.2702 19.8794 39.9164 20.8931C39.3571 22.4963 38.1584 23.8694 36.4499 24.8642C34.8112 25.8183 32.8246 26.3539 30.683 26.4229C30.6843 26.2875 30.6857 26.1523 30.6871 26.0166C31.1335 24.4466 31.9017 22.9824 32.9227 21.7621C32.9231 21.7614 32.9238 21.7607 32.9243 21.7602C33.6223 20.9164 34.7591 20.0549 36.2121 19.2688V19.2686ZM27.2923 14.2122C27.5487 13.2614 27.9625 12.3222 28.5225 11.4211C29.1758 10.3703 29.8793 9.60745 30.3034 9.19293C30.5125 9.54853 30.7175 9.9093 30.9153 10.2708C30.9864 10.4006 31.0869 10.5754 31.2032 10.7782C31.8624 11.9253 33.2339 14.3122 33.3803 15.7353C33.5302 17.1918 33.1363 18.8309 32.21 20.607C31.5919 21.7919 30.8159 22.8589 30.2068 23.5692C29.2048 22.666 27.4703 20.7159 27.0638 17.7732C26.8993 16.5825 26.9763 15.3844 27.2923 14.212V14.2122ZM20.3728 20.8929C20.0191 19.8791 19.9231 18.771 20.0858 17.5922L21.4403 18.0739C21.5683 18.1194 22.7304 18.5398 24.0769 19.2684C25.5297 20.0545 26.6667 20.9159 27.3647 21.7597C27.3652 21.7604 27.3659 21.7611 27.3663 21.7616C28.4677 23.0782 29.2752 24.6783 29.7018 26.3891C29.7025 26.3917 29.7032 26.3941 29.7039 26.3964C29.7059 26.4039 29.708 26.4114 29.7105 26.419C29.7112 26.4211 29.7116 26.4234 29.7125 26.4258C27.5302 26.3713 25.505 25.8336 23.8391 24.8635C22.1306 23.8687 20.9319 22.4956 20.3726 20.8924L20.3728 20.8929ZM23.8393 32.0762C22.1308 31.0815 20.9321 29.7084 20.3728 28.1052C20.0191 27.0914 19.9231 25.9833 20.0858 24.8045L21.4403 25.2862C21.5683 25.3317 22.7304 25.7521 24.0769 26.4807C25.5299 27.2668 26.6667 28.1282 27.3647 28.972C27.3652 28.9727 27.3659 28.9734 27.3663 28.9739C28.4611 30.2825 29.2654 31.8713 29.6938 33.5707C29.6936 33.593 29.6933 33.6153 29.6931 33.6376C27.5181 33.5806 25.5 33.0431 23.8391 32.076L23.8393 32.0762Z" fill="white"/>
<path d="M14.3042 47.9795C14.457 47.587 14.5618 47.2534 14.6183 46.9792C14.6747 46.7051 14.7032 46.3309 14.7032 45.8572V42.709C14.7032 42.2353 14.6747 41.8611 14.6183 41.587C14.5616 41.3128 14.457 40.9795 14.3042 40.5867V40.5664H16.8978V40.5867C16.7447 40.9725 16.6384 41.3079 16.5786 41.5922C16.5187 41.8765 16.4888 42.249 16.4888 42.7093V45.8574C16.4888 46.3178 16.5187 46.6903 16.5786 46.9746C16.6384 47.2589 16.7447 47.5942 16.8978 47.9801V48.0004H14.3042V47.9801V47.9795Z" fill="white"/>
<path d="M17.7358 47.9795C17.8886 47.6003 17.9935 47.2702 18.0499 46.9894C18.1063 46.7086 18.1348 46.3309 18.1348 45.8572V42.709C18.1348 42.2353 18.1063 41.8611 18.0499 41.587C17.9932 41.3128 17.8886 40.9795 17.7358 40.5867V40.5664H20.3294V40.5867C20.1764 40.9725 20.07 41.3079 20.0102 41.5922C19.9503 41.8765 19.9204 42.249 19.9204 42.7093V44.0905H22.7833V42.7093C22.7833 42.2423 22.7548 41.8715 22.6984 41.5974C22.642 41.3233 22.5339 40.9865 22.374 40.587V40.5667H24.9676V40.587C24.8146 40.9662 24.7097 41.2998 24.6535 41.5873C24.5968 41.875 24.5686 42.2492 24.5686 42.7093V45.8574C24.5686 46.3178 24.5968 46.692 24.6535 46.9795C24.71 47.2673 24.8146 47.6009 24.9676 47.9798V48.0001H22.374V47.9798C22.5336 47.5803 22.6417 47.2435 22.6984 46.9694C22.7548 46.6952 22.7833 46.3245 22.7833 45.8574V44.324H19.9204V45.8574C19.9204 46.3178 19.9503 46.6903 20.0102 46.9746C20.07 47.2589 20.1764 47.5942 20.3294 47.9801V48.0004H17.7358V47.9801V47.9795Z" fill="white"/>
<path d="M30.3845 47.9997H27.7909V47.9794C27.9437 47.6002 28.0502 47.2684 28.1101 46.9841C28.1699 46.6998 28.1999 46.3238 28.1999 45.8568V40.7789L27.7111 40.8094C27.6313 40.8161 27.5429 40.8468 27.4469 40.9008C27.3503 40.955 27.244 41.0447 27.1277 41.17C27.0111 41.2953 26.9131 41.4053 26.8333 41.5001C26.7535 41.595 26.6437 41.7406 26.5041 41.9367C26.3644 42.1331 26.2678 42.2718 26.2148 42.353C26.1615 42.4342 26.0617 42.5865 25.9155 42.8099C25.7693 43.0333 25.6892 43.1586 25.6761 43.1856L25.5664 43.1551L26.0053 40.5654H32.17L32.6089 43.1551L32.4992 43.1856C32.4793 43.1586 32.416 43.0637 32.3097 42.9013C32.2034 42.7388 32.1301 42.6254 32.0902 42.561C32.0503 42.4966 31.9771 42.3849 31.8708 42.2259C31.7642 42.067 31.6812 41.9483 31.6214 41.8706C31.5615 41.7928 31.4817 41.6895 31.382 41.5607C31.2822 41.4322 31.1976 41.3321 31.1275 41.2611C31.0576 41.19 30.9813 41.1154 30.898 41.0377C30.8148 40.96 30.7367 40.904 30.6635 40.87C30.5902 40.8361 30.5238 40.8158 30.464 40.8091L29.9852 40.7787V45.8565C29.9852 46.3235 30.0134 46.6977 30.0698 46.9786C30.1262 47.2597 30.2308 47.593 30.3842 47.9788V47.9991L30.3845 47.9997Z" fill="white"/>
<path d="M38.7533 47.9999H33.207V47.9796C33.3598 47.5598 33.4647 47.2163 33.5211 46.9489C33.5775 46.6814 33.606 46.3313 33.606 45.8979V42.6682C33.606 42.3636 33.5875 42.0892 33.5513 41.8455C33.5146 41.6018 33.4747 41.4055 33.4316 41.2566C33.3883 41.1078 33.3133 40.8844 33.207 40.5862V40.5659H38.3842L38.7533 42.5261L38.6535 42.5565C38.5803 42.489 38.3856 42.2824 38.0701 41.9369C37.754 41.5917 37.4847 41.3277 37.2621 41.1447C37.0392 40.9619 36.8449 40.8638 36.6787 40.8502L35.3919 40.7588V44.0697H35.9804C36.0802 44.0697 36.1834 44.0494 36.2897 44.0088C36.396 43.9681 36.5043 43.9037 36.614 43.8158C36.7237 43.7279 36.8149 43.6499 36.8882 43.5823C36.9614 43.5147 37.0561 43.4199 37.1726 43.298C37.2889 43.1762 37.3704 43.095 37.4172 43.0543H37.5169V45.3597H37.4172C37.3573 45.3124 37.2259 45.1787 37.023 44.9585C36.8201 44.7386 36.6371 44.5744 36.4744 44.466C36.3113 44.3577 36.1466 44.3035 35.9804 44.3035H35.3919V47.8073L36.8383 47.726C37.1507 47.7127 37.5283 47.4858 37.9706 47.0455C38.4127 46.6054 38.81 46.1349 39.1625 45.6339L39.2623 45.6643L38.7536 48.0002L38.7533 47.9999Z" fill="white"/>
<path d="M39.8306 47.9795C39.9833 47.6003 40.0882 47.2702 40.1446 46.9894C40.2011 46.7086 40.2296 46.3309 40.2296 45.8572V42.709C40.2296 42.2353 40.2011 41.8611 40.1446 41.587C40.0882 41.3128 39.9833 40.9795 39.8306 40.5867V40.5664H42.7533C43.8172 40.5664 44.5739 40.746 45.0225 41.1045C45.4714 41.4634 45.6957 41.9644 45.6957 42.6075C45.6957 43.3119 45.4395 43.8787 44.9276 44.3086C44.4155 44.7385 43.624 44.9535 42.5535 44.9535H42.0149V45.8574C42.0149 46.3381 42.0431 46.7208 42.0998 47.0051C42.1562 47.2893 42.2642 47.6143 42.4241 47.9801V48.0004H39.8306V47.9801V47.9795ZM42.3144 40.7996H42.1747C42.1083 40.7996 42.055 40.8031 42.0151 40.8098V44.7197H42.3044C42.6766 44.7197 42.9862 44.6045 43.2321 44.3745C43.4781 44.1444 43.6462 43.8787 43.7357 43.5773C43.8255 43.2762 43.8705 42.9527 43.8705 42.6075C43.8705 42.0456 43.7409 41.6038 43.4815 41.2821C43.2221 40.9606 42.8331 40.7996 42.3144 40.7996Z" fill="white"/>
</svg>
