<svg width="60" height="56" viewBox="0 0 60 56" fill="none" xmlns="http://www.w3.org/2000/svg">
<g clip-path="url(#clip0_2010_1428)">
<rect width="60" height="56" rx="8" fill="#2E8C2C"/>
<path d="M48.597 22.6927C47.8052 19.0013 45.8648 15.6505 42.986 13.0035L42.2569 13.8189C43.6461 15.0963 44.8058 16.5444 45.7039 18.1231C46.5581 19.6249 47.1746 21.2408 47.5363 22.9266C47.8855 24.5552 47.994 26.2314 47.8586 27.909C47.7251 29.5612 47.3578 31.1868 46.7665 32.7408C45.542 35.9594 43.4345 38.6965 40.6717 40.6553C39.2181 41.6859 37.6012 42.4847 35.8663 43.0296C34.2361 43.5415 32.4985 43.8293 30.6913 43.8877C30.6973 43.3081 30.7033 42.7321 30.7095 42.1589C33.4799 42.0907 36.0609 41.4115 38.1944 40.185C40.4525 38.8869 42.0441 37.0742 42.7974 34.9431C43.3479 33.3853 43.4407 31.6749 43.0733 29.8598C43.0418 29.7046 42.9461 29.5706 42.8101 29.4921C42.6745 29.4137 42.5119 29.3986 42.364 29.4503L40.3385 30.1614C41.4762 29.1044 42.3114 27.8622 42.7974 26.4873C43.3479 24.9295 43.4407 23.2191 43.0733 21.404C43.0418 21.2488 42.9461 21.1147 42.8101 21.0363C42.6745 20.9579 42.5119 20.9428 42.364 20.9945L40.1529 21.7708C39.8919 21.8624 38.5064 22.3641 36.8711 23.2376C35.8571 23.7792 34.9755 24.3416 34.2323 24.9195C34.9636 23.1547 35.2534 21.4893 35.0933 19.9534C34.8946 18.0472 33.2479 15.2179 32.3633 13.6978C32.2282 13.4655 32.1115 13.2649 32.0328 13.1232C31.6844 12.4946 31.3181 11.8675 30.9437 11.259C30.8615 11.1256 30.7272 11.0342 30.5741 11.0078C30.4211 10.9814 30.2645 11.0229 30.1435 11.1212C29.9121 11.3097 24.4875 15.8148 25.4385 22.6129C25.5487 23.401 25.7335 24.1333 25.9684 24.81C25.2559 24.2704 24.4221 23.7448 23.4721 23.2373C21.8368 22.3638 20.4513 21.8622 20.1903 21.7705L17.9792 20.9942C17.8315 20.9425 17.669 20.9576 17.5331 21.036C17.3974 21.1145 17.3013 21.2485 17.2699 21.4037C16.9025 23.2189 16.9953 24.9292 17.5458 26.487C18.0318 27.8619 18.867 29.1041 20.0047 30.1611L17.9792 29.45C17.8315 29.3983 17.669 29.4134 17.5331 29.4919C17.3974 29.5703 17.3013 29.7043 17.2699 29.8595C16.9025 31.6747 16.9953 33.385 17.5458 34.9428C18.2991 37.0742 19.8907 38.8869 22.1488 40.1847C24.2799 41.4099 26.8573 42.089 29.6242 42.1584C29.6182 42.7343 29.612 43.3128 29.606 43.8951C27.6922 43.8602 25.8534 43.5693 24.1342 43.0294C22.399 42.4845 20.7823 41.6856 19.3288 40.655C16.566 38.6962 14.4585 35.9591 13.234 32.7405C12.6427 31.1865 12.2754 29.5609 12.1419 27.9087C12.0065 26.2311 12.1147 24.5549 12.4642 22.9263C12.8256 21.2405 13.4421 19.6246 14.2965 18.1229C15.1947 16.5441 16.3544 15.096 17.7436 13.8186L17.0145 13.0032C14.1356 15.6508 12.1953 19.0013 11.4035 22.6927C11.0315 24.4275 10.9159 26.2129 11.06 27.9989C11.2019 29.756 11.5927 31.4848 12.2211 33.1373C13.5235 36.5612 15.7664 39.4728 18.7066 41.5576C20.2524 42.6537 21.9703 43.5027 23.8129 44.0814C25.7541 44.691 27.8355 45 30 45C32.1644 45 34.2461 44.691 36.187 44.0814C38.0297 43.5027 39.7475 42.6537 41.2933 41.5576C44.2336 39.4728 46.4762 36.561 47.7789 33.1373C48.4076 31.4851 48.798 29.7563 48.9399 27.9989C49.084 26.2129 48.9687 24.4278 48.5964 22.6927H48.597ZM30.7993 33.7009C32.063 33.6638 33.2864 33.4992 34.4453 33.2133C33.7222 33.754 33.1206 34.3088 32.6466 34.8743C31.9083 35.7459 31.2731 36.7151 30.7562 37.7504C30.7581 37.5679 30.76 37.3854 30.7619 37.203C30.7744 36.0384 30.7866 34.8735 30.7991 33.7006L30.7993 33.7009ZM29.6768 37.1912C29.6744 37.4331 29.6717 37.6752 29.6692 37.9174C29.1382 36.8191 28.4748 35.7924 27.6969 34.8743C27.2228 34.3088 26.6213 33.7537 25.8982 33.2133C27.1089 33.5121 28.3899 33.6786 29.7137 33.7056C29.7015 34.8729 29.689 36.0323 29.6768 37.1914V37.1912ZM42.1166 30.7021C42.3098 32.0842 42.1958 33.3833 41.7758 34.5719C41.1115 36.4514 39.6881 38.0613 37.6593 39.2276C35.6905 40.3594 33.2986 40.9891 30.7212 41.0579C30.7217 41.0116 30.7223 40.9651 30.7225 40.9189C31.2351 38.9496 32.184 37.1092 33.4707 35.5904C33.4712 35.5895 33.472 35.5887 33.4726 35.5882C34.3015 34.5989 35.6514 33.5889 37.3768 32.6673C38.9758 31.8131 40.3559 31.3202 40.5078 31.2668L42.1163 30.7021H42.1166ZM37.3768 24.2115C38.9758 23.3573 40.3559 22.8644 40.5081 22.811L42.1166 22.2463C42.3098 23.6283 42.1958 24.9275 41.7758 26.1161C41.1115 27.9956 39.6881 29.6055 37.6593 30.7718C35.7133 31.8904 33.3543 32.5184 30.811 32.5993C30.8126 32.4405 30.8143 32.282 30.8159 32.123C31.3461 30.2822 32.2583 28.5656 33.4707 27.1348C33.4712 27.134 33.472 27.1332 33.4726 27.1326C34.3015 26.1433 35.6514 25.1334 37.3768 24.2118V24.2115ZM26.7846 18.2833C27.0891 17.1685 27.5805 16.0675 28.2455 15.011C29.0213 13.779 29.8567 12.8846 30.3603 12.3986C30.6086 12.8155 30.852 13.2385 31.087 13.6623C31.1713 13.8145 31.2907 14.0195 31.4288 14.2572C32.2117 15.6021 33.8402 18.4005 34.0142 20.069C34.1922 21.7766 33.7244 23.6982 32.6244 25.7806C31.8904 27.1698 30.9689 28.4208 30.2455 29.2535C29.0557 28.1946 26.996 25.9083 26.5133 22.4582C26.3179 21.0622 26.4094 19.6576 26.7846 18.283V18.2833ZM18.5677 26.1158C18.1477 24.9273 18.0337 23.6281 18.2269 22.2461L19.8354 22.8108C19.9873 22.8641 21.3674 23.357 22.9663 24.2112C24.6915 25.1328 26.0417 26.1428 26.8706 27.1321C26.8712 27.1329 26.872 27.1337 26.8725 27.1343C28.1804 28.6778 29.1393 30.5538 29.6459 32.5597C29.6467 32.5627 29.6475 32.5655 29.6483 32.5682C29.6508 32.577 29.6532 32.5858 29.6562 32.5946C29.657 32.5971 29.6575 32.5999 29.6586 32.6026C27.0671 32.5388 24.6622 31.9083 22.6839 30.7709C20.6551 29.6047 19.2316 27.9948 18.5674 26.1153L18.5677 26.1158ZM22.6842 39.2273C20.6554 38.061 19.2319 36.4512 18.5677 34.5716C18.1477 33.3831 18.0337 32.0839 18.2269 30.7019L19.8354 31.2666C19.9873 31.32 21.3674 31.8128 22.9663 32.667C24.6918 33.5886 26.0417 34.5986 26.8706 35.5879C26.8712 35.5887 26.872 35.5895 26.8725 35.5901C28.1725 37.1243 29.1276 38.9871 29.6364 40.9795C29.6361 41.0056 29.6358 41.0317 29.6356 41.0579C27.0527 40.991 24.6562 40.3608 22.6839 39.227L22.6842 39.2273Z" fill="white"/>
</g>
<defs>
<clipPath id="clip0_2010_1428">
<rect width="60" height="56" rx="8" fill="white"/>
</clipPath>
</defs>
</svg>
