<?xml version="1.0" standalone="no"?>
<!DOCTYPE svg PUBLIC "-//W3C//DTD SVG 20010904//EN"
 "http://www.w3.org/TR/2001/REC-SVG-20010904/DTD/svg10.dtd">
<svg version="1.0" xmlns="http://www.w3.org/2000/svg"
 width="960.000000pt" height="960.000000pt" viewBox="0 0 960.000000 960.000000"
 preserveAspectRatio="xMidYMid meet">
<metadata>
Created by potrace 1.14, written by Peter Selinger 2001-2017
</metadata>
<g transform="translate(0.000000,960.000000) scale(0.100000,-0.100000)"
fill="#000000" stroke="none">
<path d="M1179 9276 c-2 -2 -29 -6 -59 -10 -57 -6 -99 -13 -137 -21 -13 -3
-26 -6 -30 -6 -21 -3 -196 -70 -244 -94 -119 -60 -238 -147 -340 -248 -56 -54
-169 -199 -169 -216 0 -6 -4 -11 -10 -11 -5 0 -10 -4 -10 -10 0 -5 -14 -33
-31 -62 -17 -29 -31 -55 -32 -58 0 -5 -10 -32 -32 -85 -18 -40 -52 -162 -59
-205 -3 -19 -9 -60 -13 -90 -10 -70 -10 -6660 -1 -6720 4 -25 10 -65 13 -89
16 -118 146 -423 205 -481 9 -8 24 -28 34 -45 59 -94 232 -248 361 -323 172
-99 315 -147 500 -170 79 -9 7284 -9 7355 0 61 9 104 16 137 23 13 3 25 5 28
5 32 0 330 129 345 149 3 4 21 17 40 29 20 11 45 29 57 39 12 10 34 27 49 38
53 39 140 132 207 220 65 87 154 241 149 259 -2 4 2 14 8 21 8 10 47 115 55
150 1 6 5 21 8 35 9 32 15 71 25 140 9 69 9 6633 0 6715 -3 33 -9 71 -12 85
-4 14 -9 38 -12 55 -8 46 -52 174 -80 235 -116 249 -296 446 -529 579 -49 29
-100 54 -112 57 -13 4 -23 9 -23 13 0 4 -6 8 -12 8 -7 0 -47 12 -88 26 -41 14
-89 28 -105 31 -17 3 -41 8 -55 12 -14 3 -38 8 -55 12 -32 6 -7319 15 -7326 8z"/>
</g>
</svg>
