<?xml version="1.0" encoding="UTF-8"?>
<svg xmlns="http://www.w3.org/2000/svg" version="1.1" viewBox="0 0 3598.92 1775.65">
  <defs>
    <style>
      .cls-1 {
        fill: #7f7327;
      }

      .cls-2 {
        fill: #fff;
      }
    </style>
  </defs>
  <!-- Generator: Adobe Illustrator 28.6.0, SVG Export Plug-In . SVG Version: 1.2.0 Build 709)  -->
  <g>
    <g id="_Слой_1" data-name="Слой_1">
      <g>
        <path class="cls-1" d="M2494.79,1779.2c.02-11.86,5.03-17.96,13-22.02,8.07-4.11,16.01-3.63,23.62,1.2,2.58,1.64,4.22,4.24,5.33,7.05,3.42,8.64.4,19.16-7.11,25.04-8.02,6.29-19.22,6.94-26.9,1.48-5.21-3.7-8.06-8.7-7.94-12.76Z"/>
        <g>
          <path class="cls-2" d="M2199.28,598.24c0,.87.01,1.74.12,2.59-.11-.85-.11-1.72-.12-2.59Z"/>
          <path class="cls-2" d="M1604.35,824.55c-9.58,5.48-19.76,9.58-30.32,12.71-47.51,14.09-94.78,11.26-141.7-2.74-40.27-12.01-76.94-31.46-111.23-55.52-40.04-28.09-76.74-59.76-105.41-99.84-37.35-52.22-56.18-109.86-50.55-174.55.33-3.75-.13-7.79,2.97-11.31,1.53,1.2,2.64,1.89,3.53,2.81,21.07,21.74,46.72,36.31,74.71,46.87,41.18,15.55,84.16,22.22,127.93,24.43,36.72,1.86,72.87,6.99,107.94,18.33,66.95,21.64,121.49,59.83,158.97,120.35,9.46,15.27,18.05,31.06,22.99,48.52.61.59,1.23,1.43.49,2.06-.88.74-1.29-.23-1.6-.95-1.09-.73-2.3-1.34-3.25-2.22-40.76-37.67-88.45-62.31-142.23-75.43-22.71-5.54-45.72-9.01-69.17-8.76-6.71.07-6.9.22-6.77,6.66.12,5.99.84,11.96,1.04,17.94.14,4.11,1.78,5.73,6.06,5.67,12.69-.17,25.23,1.57,37.74,3.55,74.65,11.82,135.74,46.85,182.98,106.07,24.37,30.54,42.47,64.35,55.46,101.07,4.34,12.25,9.71,24.07,15.73,35.59,1.75,3.35,3.54,4.36,6.97,2.09,9.68-6.41,19.48-12.62,29.37-19-1.51-2.76-2.55-4.82-3.73-6.8-26.8-45.05-43.43-93.3-46.86-145.91-2.27-34.82,2.68-68.52,15.61-100.75,14.11-35.16,34.56-66.77,58.35-96.15,6.65-8.21,13.78-16.57,22.28-22.63,26.27-18.75,53.8-35.47,83.83-47.85,37.19-15.33,75.68-25.17,115.68-29.21,5.27-.53,11.65,1.41,15.56-1.81,4.62-3.79,1.66-10.59,2.02-16.04,1.02-15.77,2.41-15.01-14.97-13.58-28.26,2.32-56.05,7.52-83.26,15.57-50.9,15.07-97.91,37.79-139.28,71.42-25.54,20.76-47.18,45.01-64.84,72.81-1.51,2.37-2.16,5.62-5.84,6.66.08-1.5-.03-2.84.26-4.08,10.86-46.58,27.78-90.71,53.61-131.14,32.1-50.25,73.65-90.9,124.87-121.55,10.24-6.13,20.67-11.94,31.01-17.9,1.54-.62,3.11-1.17,4.6-1.87,48.3-22.84,99.28-36.19,152.14-42.82,29.72-3.73,59.63-5.9,89.1-11.7,41.93-8.26,82.8-19.62,120.95-39.41,33.42-17.34,63.21-39.11,85.66-69.87.78-1.07,1.3-2.34,1.66-3,3.15,1.32,3.34,3.01,3.63,4.61,6.18,34.64,7.88,69.48,3.8,104.47-7.02,60.23-28.26,115.32-60.79,166.25-22.17,34.7-48.64,65.87-78.03,94.63-15.01,14.68-31.09,28.15-46.82,42.02-1.23.17-2.08.82-2.45,2.03-.56.09-.99.38-1.28.87-1.05,0-1.62.55-1.81,1.55-1.49,1.19-2.97,2.37-4.46,3.56-1.24.14-2.12.76-2.53,1.97-.53.06-.94.32-1.24.76-1.16-.06-1.77.56-2,1.64h0c-.73.58-1.45,1.15-2.18,1.73,0,.29,0,.57,0,.86,0,.87.01,1.74.12,2.59-.11-.85-.11-1.72-.12-2.59,0-.29,0-.58,0-.86-10.41,7.13-20.78,14.31-31.25,21.37-50.71,34.2-104.89,60.43-165.46,71.99-40.09,7.65-80.12,7.67-119.99-1.33-19.22-4.34-37.84-10.63-54.99-20.52-4.6-2.65-6.79-1.85-9.43,2.4-4.74,7.63-10.1,14.88-15.07,22.37-3.88,5.85-3.88,6.07,2.47,9.62,11.64,6.51,23.72,12.06,36.32,16.5,59.52,20.95,119.98,22.31,181.09,8.5,58.88-13.31,112.41-38.92,162.49-72.06,13.56-8.97,27.42-17.65,39.39-28.83,23.12-16.95,44.59-35.83,65.39-55.52,40.75-38.59,75.25-82.11,102.24-131.27,45.88-83.58,62.65-172.52,46.71-267-3.99-23.66-9.88-46.85-19.2-69.04-4.33-10.3-12.07-15.4-21.42-14.68-9.18.7-16.41,7.37-18.4,18.16-3.22,17.48-11.22,32.59-21.92,46.45-18.05,23.39-41.47,40.07-67.43,53.53-23.4,12.14-48.33,20.26-73.49,27.76-2.35-.32-4.56-.13-6.33,1.7-.59-.09-1.14.01-1.67.3-2.89-.37-5.58.09-7.94,1.92-1.35.23-2.7.46-4.04.69-1.49.07-3.05-.07-4.2,1.2-.62-.1-1.22-.02-1.8.25-2.94-.33-5.81-.27-8.28,1.7-9.53,1.45-19.07,2.88-28.6,4.36-30.92,4.8-62.28,6.03-93.07,11.92-40.65,7.77-80.27,18.83-117.96,36.19-1.74-.3-2.98.47-3.97,1.8-7.6,2.82-14.85,6.39-21.92,10.34-2.11.93-4.29,1.71-6.32,2.8-48,25.92-90.18,59.09-125.13,101.1-60.61,72.84-94.41,156.73-103.02,250.93-.82,8.99-1.55,17.99-2.48,28.75-2.92-4.44-4.79-7.16-6.53-9.95-17.65-28.2-39.27-53.01-65.07-73.94-62.5-50.72-135.54-73.61-214.61-79.93-23.23-1.86-46.56-2.5-69.6-6.37-30.99-5.2-61.44-12.43-89.09-27.92-25.82-14.46-48.02-32.39-55.63-63.26-2.08-8.43-8.66-13.53-17.49-14.15-8.32-.58-14.82,3.29-19.01,10.54-1.49,2.57-2.63,5.39-3.63,8.19-16,44.91-18.99,91.07-11.64,137.83,7.31,46.49,25.84,88.59,52.85,127.05,35.21,50.14,80.86,89.03,131.76,122.27,51.7,33.76,107.16,57.76,169.24,63.95,47.36,4.72,92.97-1.81,135.97-23.08,4.7-2.32,9.75-4.26,13.84-8.95-6.72-9.58-13.46-19.04-20.01-28.63-2.39-3.49-4.72-2.48-7.59-.84Z"/>
          <path class="cls-2" d="M2343.76,1568.55c-1.31-.23-2.64-.42-3.96-.53-12.63-1.08-23.66-6.3-34.2-12.94-13.4-8.44-24.42-19.55-35.06-31.05-23.15-25-42.89-52.66-62.34-80.53-11.22-16.09-22.12-32.4-33.04-48.43,2.42-3.48,5.69-4.59,8.32-6.52,19.04-13.93,34.05-31.1,40.58-54.14,7.31-25.8,4.56-49.7-17.2-68.29-10.31-8.8-22.6-13.97-35.85-16.69-17.73-3.64-35.61-4.43-53.69-3.07-24.25,1.83-48.51,3.57-72.87,1.97-10.63-.7-21.31-.7-31.97-.89-2.46-.04-6.08-1.11-6.43,2.7-.37,4.07,3.3,3.13,5.79,3.4,5.96.63,11.98.95,17.87,1.99,9.7,1.71,16.3,6.87,18.17,17.23.89,4.95,1.43,9.87,1.43,14.88,0,82.28,0,164.56.03,246.84,0,6.04-.66,11.97-2.12,17.81-1.58,6.28-5.57,10.52-11.6,12.74-3.43,1.27-6.97,2.16-10.7,2.33-5.32.24-10.63.69-15.95,1.08-2.21.16-3.94.99-3.69,3.59.19,1.99,1.64,2.76,3.47,2.79,4,.07,8,.22,11.99.06,31.65-1.25,63.29-1.41,94.94-.07,3.99.17,8,.22,11.99.07,2.74-.1,6.86,1.17,6.85-3.39,0-3.88-3.79-2.78-6.24-3.02-4.97-.47-9.98-.65-14.93-1.22-13.75-1.59-19.53-7.11-21.65-20.58-.41-2.62-.58-5.31-.58-7.97-.07-40.97-.01-81.95-.21-122.92-.03-5.18,1.46-6.9,6.78-6.63,12.62.65,25.32,1.45,37.83-1.3,2.65-.58,4.5,0,5.85,2.39,1.14,2.03,2.44,3.97,3.69,5.94,26.52,41.95,53.24,83.76,84.42,122.5,8.15,10.13,16.6,19.99,26.43,28.58,6,5.25,12.56,7.99,20.86,7.81,19.98-.45,39.99-.14,59.98-.15,2.33,0,4.66-.02,6.99-.13,1.9-.09,3.06-1.12,3.12-3.1.07-2.09-1.31-2.86-3.08-3.16ZM2142.98,1395.3c-15.97,3.12-31.82,1.42-47.75.12-4.52-.37-4.24-3.21-4.24-6.24,0-.33,0-.67,0-1,0-17.98,0-35.96,0-53.94h.09c0-16.31-.26-32.63.06-48.94.45-22.98,7.25-29.71,29.97-30.3,7.31-.19,14.56-.04,21.78,1.92,17.03,4.61,28.56,15.05,34.8,31.45,3.7,9.74,5.46,19.87,5.79,30.25.43,13.31.72,26.62-2.25,39.76-4.8,21.18-16.99,32.76-38.25,36.91Z"/>
          <path class="cls-2" d="M2560.35,1245.07c-62.47-11.5-118.98,4.5-167.14,46.35-24.22,21.05-40.19,47.77-47.2,79.35-5.77,26.02-6.33,52.24-.52,78.28,14.13,63.34,50.83,107.51,113.99,125.31,57.06,16.08,111.27,5.82,159.44-28.89,46.88-33.78,72.04-79.97,72.73-138.45.33-16.2-1.86-32.05-6.72-47.33-19.66-61.84-59.95-102.72-124.58-114.61ZM2623.4,1511.62c-18.21,32.76-45.87,52.56-83.13,57-34.71,4.13-66.03-5.31-92.74-28.34-22.85-19.7-37.61-44.75-46.63-73.2-13.81-43.54-15.88-87.57-3.72-131.85,5-18.23,13.74-34.62,26.67-48.58,22.97-24.81,52.29-33.22,84.97-32.15,57.01,1.86,95.41,31.12,118.43,81.97,12.28,27.13,16.8,55.96,16.47,85.03.34,32.04-4.84,62.29-20.31,90.12Z"/>
          <path class="cls-2" d="M1961.85,1445.57c-2.64-.2-5.32-.15-7.98.01-16.97,1.05-33.96,1.58-55.76,1.48-13.19-.58-31.17-1.36-49.15-2.16-1.66-.07-3.32-.31-4.98-.35-2.73-.07-4.52,1.08-4.51,4.05,0,2.86,1.7,4.19,4.4,4.32,2.33.11,4.67.14,7,.11,8.7-.1,17.31.83,25.86,2.26,10.08,1.68,17.77,6.88,19.69,17.24,4.34,23.45,5.1,47.04-1.08,70.33-3.85,14.53-13.69,23.18-28.41,26.31-12.48,2.66-25.07,3.01-37.78,2.51-52.86-2.06-93.16-26.22-120.14-70.99-31.13-51.66-35.91-107.62-18.92-164.71,12.3-41.32,40.76-67.9,83.42-77.91,16.01-3.75,32.33-4.62,48.69-3.29,49.59,4.02,85.14,27.87,104.48,74.41.76,1.83,1.52,3.68,2.49,5.39.75,1.32,2.24,1.39,3.55,1.06,1.35-.34,2.36-1.22,2.29-2.8-.07-1.66-.18-3.33-.37-4.98-1.67-14.89-3.59-29.76-5.01-44.67-2.08-21.95,1.42-22.03-25.66-31.55-.31-.11-.65-.15-.97-.24-52.95-14.72-105.42-13.81-156.91,6.02-64.89,24.99-111.06,80.52-111.51,154.31-.38,63.7,26.32,112.33,81.92,144.26,29.24,16.79,61.31,23.63,94.69,24.93,23.38.91,46.62-1.17,69.76-4.31,17.49-2.37,34.85-5.57,52.04-9.59,8.81-2.06,10.37-3.7,9.03-11.09-4.58-25.15-2.83-50.48-2.46-75.77.07-4.96.83-9.98,1.89-14.84,1.74-7.99,5.6-11.23,13.67-12.24,2.31-.29,4.66-.21,6.96-.55,1.89-.27,2.85-1.69,2.72-3.55-.12-1.78-1.09-3.29-2.96-3.43Z"/>
          <path class="cls-2" d="M3503.1,1439.52c-12.17-73.14-84.94-89.32-130.67-60.11-11.54,7.37-21.99,16.04-32.95,26.68-1.68-5.05-1.18-8.67-1.18-12.21-.03-60.95-.02-121.89-.02-182.84,0-2.66.14-5.34-.06-7.99-.54-7.35-3.58-9.17-10.6-6.3-3.07,1.26-6.02,2.82-9.02,4.27-17.37,8.4-34.78,16.73-52.05,25.32-2.56,1.27-7.89,1.46-6.16,6.05,1.84,4.87,5.63.96,8.47.23,3.21-.83,6.23-2.35,9.44-3.16,13.35-3.33,20.49,1.22,22.74,14.77,1.37,8.22,1.56,16.56,1.56,24.9-.04,81.93,0,163.85-.07,245.78,0,6.31-.49,12.64-1.11,18.93-.91,9.22-4.59,17.28-10.97,24.08-4.58,4.87-9.53,9.29-14.94,13.22-1.67,1.21-3.5,2.84-2.25,4.87,1.3,2.11,3.52.89,5.34.06,10.59-4.83,21.28-9.46,31.74-14.56,5.24-2.56,9.28-2.63,14.57.82,27.54,17.98,57.81,22.91,89.89,16.68,44.74-8.7,77.47-41.25,86.96-85.89,3.78-17.8,4.32-35.69,1.34-53.6ZM3459.35,1524.04c-1.84,7.12-4.56,13.89-8.2,20.29-11.92,20.92-31.94,30.61-55.54,26.28-37.3-6.85-55.63-35.56-56.92-61.8-.7-14.32-.29-28.61-.6-40.64,0-16.25.21-30.23-.11-44.2-.12-5.17,1.52-8.69,5.53-11.93,11.71-9.47,23.9-17.99,38.41-22.71,25.16-8.17,49.99.02,65.13,21.63,8.59,12.27,12.98,26.15,15.07,40.8,3.45,24.25,3.41,48.4-2.77,72.29Z"/>
          <path class="cls-2" d="M1612.35,1568.37c-15.88-1.41-25.61-11.59-33.91-23.77-6.76-9.93-12.28-20.57-17.53-31.35-16.6-34.11-33.21-68.22-49.82-102.33-26.37-54.16-52.73-108.32-79.13-162.47-1.26-2.59-1.8-6.24-5.46-6.48-4.3-.28-5.04,3.65-6.45,6.56-1.01,2.1-1.86,4.27-2.79,6.41-23.43,54.04-46.71,108.14-70.33,162.09-15.34,35.05-29.79,70.51-46.27,105.05-5.02,10.52-10.66,20.74-18.36,29.64-7.93,9.18-17.6,15.12-29.98,16.05-2.32.17-4.64.51-6.94.89-1.43.24-2.4,1.12-2.45,2.67-.06,1.92.84,3.27,2.79,3.41,2.32.17,4.66.1,6.98,0,17.31-.78,34.59-2.06,51.93-1.96,13.66.14,27.31.1,40.94,1.46,5.62.56,11.31.54,16.97.67,2.62.06,5.93.3,5.91-3.45-.02-3.2-3.07-2.77-5.34-2.95-7.96-.64-15.96-.96-23.68-3.31-18.24-5.55-26.77-19.54-23.32-38.41,1.08-5.91,2.67-11.68,5.06-17.21,13.99-32.38,28.08-64.71,41.91-97.16,1.88-4.41,4.49-5.74,9.07-5.71,27.66.17,55.32.19,82.97-.02,4.97-.04,7.76,1.46,9.96,6.07,19.09,39.94,38.44,79.75,57.63,119.63,2.75,5.71,4.96,11.67,5.58,18.04.78,8.13-2.09,12.29-9.8,15.22-4.8,1.83-9.91,1.25-14.74,2.35-3.52.8-10.07-1.59-9.92,3.42.18,6.5,6.84,3.37,10.46,3.14,30.97-1.9,61.91-2.62,92.87.07,4.97.43,9.99.21,14.99.26,2.2.03,4.09-.72,4.22-3.15.14-2.59-1.96-3.2-4.03-3.39ZM1370.68,1394.13c13.33-30.77,26.42-60.98,40.55-93.59,15.5,32.41,29.89,62.48,44.78,93.59h-85.33Z"/>
          <path class="cls-2" d="M478.57,1568.72c-3.96-.52-7.94-.91-11.9-1.46-8.94-1.24-14.35-6.3-16.37-15.12-1.65-7.21-1.79-14.53-1.81-21.85-.06-31.31.04-62.62-.09-93.93-.03-6.98-.35-14-1.21-20.93-3.02-24.38-19.35-43.06-41.91-47.84-17.08-3.62-33.75-2-49.85,5.01-15.54,6.76-28.46,17.08-40.24,29.04-1.99,2.02-3.31,4.95-7.35,5.72-.92-5.95-1.6-11.23-2.58-16.46-1.17-6.25-3.17-12.28-6.62-17.66-3.56-5.55-6.56-6.57-12.61-3.74-19.89,9.31-39.67,18.84-59.46,28.34-2.03.98-4.66,1.95-3.29,5.08,1.36,3.13,3.7,1.86,5.9,1.01,7.15-2.78,14.42-5.25,22.11-5.94,9.44-.85,15.34,3.24,17.76,12.39,1.62,6.13,2.19,12.43,2.18,18.8-.06,34.64-.04,69.28-.02,103.93,0,5.68-.4,11.3-1.57,16.88-2.35,11.3-6.27,15.25-17.64,17.28-3.6.64-7.27.9-10.88,1.53-1.39.24-2.17,1.38-2.08,2.93.09,1.47.75,2.8,2.15,2.93,2.97.28,5.99.35,8.97.21,25.65-1.15,51.29-1.41,76.94.03,2.99.17,6,0,9,.03,2.29.02,4.01-.81,4.01-3.29,0-2.62-2.01-2.95-4.15-3.15-3.65-.34-7.29-.75-10.9-1.35-8.46-1.4-13.78-6.29-15.59-14.71-1.26-5.86-2.09-11.78-2.08-17.82.05-35.97.13-71.95-.13-107.92-.04-5.25,1.79-8.77,5.49-12.02,14.97-13.13,32-21.92,52.12-22.5,24.19-.7,38.61,8.56,44.52,32.58,1.93,7.84,2.46,15.79,2.48,23.78.07,28.65.09,57.29,0,85.94-.02,5.97-.31,11.93-1.67,17.86-1.86,8.12-6.87,12.68-14.7,14.47-2.59.59-5.31.62-7.89,1.24-2.87.69-8.05-1.06-7.52,3.98.48,4.57,5.31,2.91,8.31,2.8,27.32-1,54.62-1.37,81.94.09,2.65.14,5.33.03,7.98-.2,1.9-.17,2.89-1.47,2.76-3.42-.1-1.52-1.05-2.38-2.49-2.57Z"/>
          <path class="cls-2" d="M2989.23,1489.1c-2.47-.61-3.51.73-4.19,2.97-1.84,6.04-3.46,12.2-5.91,18-10.71,25.34-28.13,44.4-55.74,49.84-28.89,5.7-58.4,4.07-87.61,1.05-8.19-.85-13.7-6.18-15.43-14.86-1.06-5.29-1.17-10.58-1.17-15.9-.03-79.96-.03-159.91.02-239.87,0-4.98.12-10.04.94-14.93,2.21-13.15,7.67-18.3,20.98-20.16,5.27-.74,10.61-.95,15.91-1.45,2.23-.21,5.21.25,5.26-3.1.06-4.18-3.38-3.16-5.87-3.29-1.66-.08-3.33-.03-5,.05-35.63,1.74-71.26,1.89-106.9,0-2.33-.12-4.67-.1-7-.05-2.17.04-3.95.65-3.79,3.37.13,2.2,1.76,2.55,3.47,2.71,6.3.57,12.66.79,18.91,1.73,12.04,1.81,17.41,7.34,19.71,19.19.96,4.94,1.32,9.89,1.32,14.9-.01,81.29-.02,162.58.01,243.86,0,5.7-.71,11.28-1.71,16.87-1.5,8.41-6.43,13.54-14.59,15.94-5.85,1.71-11.89,1.33-17.8,2.23-3.26.5-9-1.66-8.94,3.29.07,6.14,6.24,3.29,9.55,3.31,38.32.23,76.65.15,114.98.15,38.66,0,77.32.03,115.98-.02,10.62-.01,12.13-1.5,12.29-12.06.22-14.33.53-28.64,2.01-42.91.93-8.94,1.55-17.91,2.27-26.87.13-1.66.21-3.45-1.95-3.98Z"/>
          <path class="cls-2" d="M3248.53,1544.07c-5.72,1.74-11.37,3.88-17.21,5.05-12.97,2.6-19.79-2.12-21.74-15.22-.98-6.55-1.11-13.27-1.13-19.92-.09-44.96-.05-89.92-.06-134.88,0-2.66.18-5.36-.17-7.98-.54-4.06-3.07-5.06-6.18-2.44-2.79,2.35-5.27,5.07-7.96,7.53-4.12,3.76-8.18,4.7-13.35,1.16-6.04-4.13-12.96-6.76-20.16-8.41-39.94-9.19-74.98,1.82-104.31,28.73-36.4,33.41-46.15,76.13-35.45,123.29,12.63,55.69,69.73,74.21,115.41,48.07,10.74-6.14,20.25-14,29.3-22.41,1.87-1.74,3.19-4.31,7.23-4.76.31,3.19.42,5.84.84,8.44,1.38,8.56,2.97,17.09,7.34,24.74,3.21,5.62,5.04,6.55,10.41,3.98,20.1-9.62,40.07-19.53,60.09-29.33,1.81-.89,3.92-1.85,2.99-4.34-1.18-3.13-3.64-1.96-5.89-1.28ZM3167.48,1535.39c-9.06,7.44-18.51,14.25-29.33,18.79-27.8,11.67-54.91,4.56-69.37-25.42-9.53-19.75-11.49-40.87-10.71-62.31.58-16.01,3.07-31.77,9.26-46.76,3.33-8.07,7.55-15.58,13-22.36,18.89-23.53,51.74-27.88,74.92-10.11,11.99,9.19,17.43,21.52,17.52,36.36.1,16.65.02,33.3.02,49.95.01,16.65-.19,33.3.13,49.94.1,5.17-1.45,8.65-5.44,11.93Z"/>
          <path class="cls-2" d="M189.74,1568.5c-5.65-.42-11.32-.64-16.93-1.34-12.51-1.57-17.42-6.32-20.17-18.54-1.03-4.6-1.3-9.23-1.3-13.89-.01-81.95,0-163.9-.03-245.85,0-5.69.56-11.29,1.85-16.84,1.83-7.82,6.51-12.83,14.17-15.31,5.78-1.87,11.84-1.75,17.7-2.93,3.37-.68,9.67,2.29,9.27-3.84-.31-4.68-6.06-2.45-9.33-2.45-25.98-.03-51.92,2.58-77.94.86-11.63-.77-23.31-.8-34.97-.92-2.53-.02-6.76-1.71-6.76,3.16,0,4.19,3.81,2.64,6.13,2.92,5.62.69,11.32.83,16.89,1.78,11.89,2.03,17.58,7.86,19.24,19.63.79,5.59,1.32,11.27,1.33,16.9.08,79.62.04,159.23.08,238.85,0,6.36-.7,12.64-1.72,18.88-1.36,8.33-6.1,13.7-14.34,16.15-6.49,1.93-13.18,1.66-19.77,2.47-2.93.36-7.84-1.54-7.74,3.51.1,5.15,5.04,3.09,7.9,3.12,18.65.18,37.31.09,55.97.09,0-.2,0-.4,0-.6,10.33,0,20.66-.08,30.99.02,9.66.09,19.32.41,28.98.56,2.31.04,5.1.26,5.35-2.98.26-3.38-2.53-3.26-4.87-3.44Z"/>
          <path class="cls-2" d="M861.31,1544.4c-1.86.59-3.62,1.6-5.31,2.62-14.66,8.8-30.53,13-44.93,12.72-30.01.4-52.01-9.88-67.14-33.02-17.74-27.12-19.77-57.34-16.51-88.46.34-3.26,2.18-4.6,5.35-4.52,2,.05,4-.07,6-.08,37.32-.22,74.64-.42,111.96-.68,9.08-.06,10.49-1.39,11.31-10,1.94-20.46-7.88-38.29-26.13-47.78-10.32-5.37-21.51-7.13-32.85-7.41-65.07-1.57-120.76,48.13-117.27,118.41,1.84,37.08,18.09,66.66,52.18,84.01,34,17.31,85.94,16.7,123.75-18.33.97-.9,1.83-1.93,2.71-2.92.8-.88.57-1.88.07-2.76-.69-1.21-1.86-2.24-3.21-1.82ZM792.95,1379.81c8.75,2.43,15.24,7.95,19.85,15.72,4.43,7.46,6.55,16.66,6.07,27.52-29.13.82-58.33,1.63-87.59,2.45,1.87-30.2,33.65-53.48,61.66-45.69Z"/>
          <path class="cls-2" d="M653.89,1545.23c-1.47.74-2.79,1.79-4.13,2.77-13.6,9.92-28.86,13.1-45.37,11.23-17.43-1.97-28.54-12.7-31-30.01-.37-2.63-.55-5.31-.56-7.96-.07-41.27-.13-82.54-.1-123.81,0-6.54.23-6.69,6.72-6.48,18.32.59,36.51,2.35,54.52,5.93,10.7,2.13,12.97.22,13.33-10.62.08-2.32-.05-4.67-.36-6.97-.57-4.17-2.57-6.69-7.31-5.99-3.29.49-6.62.65-9.93.99-16.23,1.66-32.46,3.23-48.79,3.51-8.05.14-8.12.15-8.2-8.1-.09-9.32-.05-18.64-.01-27.96,0-2.53-.39-4.72-3.41-5.14-2.7-.38-4.47.86-5.29,3.43-.4,1.27-.63,2.59-1.06,3.84-6.83,19.51-20.99,30.09-40.98,33.49-3.61.61-7.25,1.02-10.88,1.47-2.36.29-3.52,1.55-3.53,3.93-.01,2.32.97,3.85,3.36,4.1,1.98.21,3.99.16,5.98.34,13.6,1.22,17.6,5.08,18.74,18.42.4,4.64.53,9.3.55,13.96.06,17.97.02,35.95.02,53.92h.03c0,20.97-.32,41.94.08,62.9.48,25.55,11.94,38.41,36.87,43.11,33.38,6.29,59.54-8.11,83.67-28.63.25-.21.47-.46.69-.71.95-1.06,1.46-2.19.6-3.56-1.02-1.63-2.48-2.29-4.22-1.41Z"/>
          <path class="cls-2" d="M1053.71,1375.11c-14.54-9.68-29.26-9.76-43.99-.36-9.91,6.32-18.2,14.5-26.32,22.88-3.14,3.24-5.63,7.28-9.94,9.4-2.57-3.19-1.69-6.69-2.14-9.88-1.02-7.3-2.64-14.41-6.09-20.97-3.83-7.29-7.1-10.53-16.7-5.7-18.12,9.11-36.57,17.59-54.87,26.35-1.79.86-3.62,1.73-5.2,2.9-.59.44-.85,1.84-.67,2.67.3,1.33,1.42,2.56,2.81,2.37,1.93-.25,3.84-.94,5.67-1.68,5.9-2.38,12-4.08,18.25-4.99,10.44-1.52,16.36,2.57,19.42,12.65,1.87,6.17,1.82,12.51,1.84,18.81.08,34.63.04,69.26.02,103.9,0,3.33-.12,6.66-.36,9.98-1.24,17.18-5.99,22.12-22.9,24.54-3.18.45-8.9-1.13-8.44,4.05.45,5.04,5.97,2.87,9.2,2.75,29.31-1.13,58.61-1.08,87.92-.06,5.99.21,11.99.07,17.99.06,2.17,0,4.04-.58,4-3.23-.04-2.79-2.22-2.83-4.22-2.99-4.98-.39-9.96-.7-14.93-1.16-24.69-2.26-31.23-8.54-31.55-32.92-.48-36.29-.15-72.59-.22-108.89,0-3.43.48-6.48,2.97-9.18,5.87-6.38,11.64-12.87,18.72-17.93,10.49-7.51,19.16-7.08,29.04.99,3.61,2.94,7.04,6.21,11,8.57,7.15,4.26,14.72,4.25,21.72-.39,6.4-4.25,8.76-10.64,7.88-18.23-.76-6.51-4.77-10.89-9.89-14.3Z"/>
          <path class="cls-2" d="M1219.57,1443.34c-38.96,6.9-77.91,13.88-116.84,20.94-13.19,2.39-14.29,4.16-12.4,17.81.14.99.45,1.97.48,2.95.1,4.24,2.6,4.83,6.05,4.11,1.63-.34,3.27-.59,4.91-.89,24.21-4.37,48.42-8.75,72.63-13.1,15.71-2.82,31.43-5.57,47.13-8.43,7.79-1.42,8.8-2.59,9.47-10.17.12-1.32.02-2.66.02-3.99-.03-10.31-.84-11.11-11.45-9.23Z"/>
          <path class="cls-2" d="M1664.68,756.67c.74-.63.12-1.46-.49-2.06-.39.35-.76.73-1.11,1.11.31.72.72,1.69,1.6.95Z"/>
        </g>
        <path class="cls-2" d="M1111.85,1838.48c-.54.33-1.33,1.08-1.58.93-1.08-.65-.8-1.65-.26-2.59.61.55,1.23,1.11,1.84,1.66Z"/>
      </g>
    </g>
  </g>
</svg>