<svg width="95" height="48" viewBox="0 0 95 48" fill="none" xmlns="http://www.w3.org/2000/svg">
<rect width="94.2857" height="48" rx="8" fill="#F6F6F6"/>
<path d="M13.6431 30.9603C13.9676 30.2212 14.1904 29.593 14.3102 29.0768C14.4301 28.5606 14.4906 27.8559 14.4906 26.9638V21.0357C14.4906 20.1437 14.4301 19.439 14.3102 18.9228C14.1897 18.4065 13.9676 17.7789 13.6431 17.0392V17.001H19.1522V17.0392C18.8271 17.7657 18.6013 18.3972 18.4742 18.9326C18.347 19.4679 18.2835 20.1693 18.2835 21.0363V26.9644C18.2835 27.8313 18.347 28.5327 18.4742 29.068C18.6013 29.6034 18.8271 30.2349 19.1522 30.9614V30.9996H13.6431V30.9614V30.9603Z" fill="#1A3E10"/>
<path d="M20.9316 30.9603C21.2561 30.2463 21.4789 29.6247 21.5988 29.0959C21.7187 28.5671 21.7792 27.8559 21.7792 26.9638V21.0357C21.7792 20.1437 21.7187 19.439 21.5988 18.9228C21.4783 18.4065 21.2561 17.7789 20.9316 17.0392V17.001H26.4408V17.0392C26.1157 17.7657 25.8899 18.3972 25.7628 18.9326C25.6356 19.4679 25.5721 20.1693 25.5721 21.0363V23.637H31.6533V21.0363C31.6533 20.1568 31.5928 19.4586 31.4729 18.9424C31.353 18.4262 31.1236 17.792 30.784 17.0398V17.0015H36.2931V17.0398C35.968 17.7537 35.7452 18.3819 35.626 18.9233C35.5055 19.4652 35.4456 20.1699 35.4456 21.0363V26.9644C35.4456 27.8313 35.5055 28.536 35.626 29.0773C35.7458 29.6192 35.968 30.2474 36.2931 30.9609V30.9991H30.784V30.9609C31.123 30.2086 31.3524 29.5744 31.4729 29.0582C31.5928 28.542 31.6533 27.8439 31.6533 26.9644V24.0768H25.5721V26.9644C25.5721 27.8313 25.6356 28.5327 25.7628 29.068C25.8899 29.6034 26.1157 30.2349 26.4408 30.9614V30.9996H20.9316V30.9614V30.9603Z" fill="#1A3E10"/>
<path d="M47.7998 30.9992H42.2906V30.961C42.6151 30.247 42.8415 29.6221 42.9686 29.0867C43.0958 28.5514 43.1594 27.8434 43.1594 26.9639V17.4021L42.1211 17.4594C41.9516 17.472 41.7639 17.5299 41.5599 17.6315C41.3546 17.7336 41.1288 17.9024 40.8818 18.1384C40.6342 18.3744 40.426 18.5815 40.2564 18.7601C40.0869 18.9387 39.8539 19.2129 39.5572 19.5822C39.2606 19.952 39.0553 20.2131 38.9427 20.3661C38.8295 20.5191 38.6176 20.8058 38.307 21.2265C37.9965 21.6471 37.8264 21.8831 37.7985 21.9339L37.5654 21.8765L38.4978 17H51.5926L52.5249 21.8765L52.2919 21.9339C52.2495 21.8831 52.1151 21.7045 51.8893 21.3986C51.6634 21.0926 51.5079 20.8791 51.4231 20.7578C51.3383 20.6365 51.1828 20.4262 50.9569 20.1268C50.7305 19.8275 50.5543 19.6041 50.4272 19.4577C50.3001 19.3113 50.1306 19.1168 49.9187 18.8742C49.7068 18.6323 49.527 18.4438 49.378 18.3099C49.2297 18.1761 49.0675 18.0357 48.8907 17.8893C48.7139 17.7429 48.548 17.6375 48.3925 17.5736C48.2369 17.5097 48.0958 17.4714 47.9687 17.4589L46.9516 17.4015V26.9634C46.9516 27.8429 47.0115 28.5476 47.1314 29.0764C47.2513 29.6057 47.4735 30.2333 47.7992 30.9599V30.9981L47.7998 30.9992Z" fill="#1A3E10"/>
<path d="M65.5766 30.9996H53.7954V30.9614C54.1199 30.171 54.3427 29.5242 54.4626 29.0205C54.5824 28.5169 54.643 27.8575 54.643 27.0414V20.9598C54.643 20.3862 54.6036 19.8694 54.5267 19.4106C54.4486 18.9517 54.3639 18.5819 54.2725 18.3016C54.1804 18.0214 54.0212 17.6008 53.7954 17.0392V17.001H64.7926L65.5766 20.6921L65.3647 20.7495C65.2091 20.6222 64.7956 20.2332 64.1254 19.5826C63.454 18.9326 62.8819 18.4355 62.4091 18.0908C61.9357 17.7466 61.5228 17.562 61.1698 17.5363L58.4364 17.3642V23.5988H59.6866C59.8985 23.5988 60.1176 23.5606 60.3434 23.4841C60.5693 23.4076 60.7993 23.2863 61.0324 23.1208C61.2655 22.9553 61.4592 22.8084 61.6148 22.6811C61.7704 22.5538 61.9714 22.3752 62.219 22.1457C62.466 21.9163 62.6391 21.7633 62.7384 21.6869H62.9503V26.0281H62.7384C62.6113 25.939 62.3322 25.6872 61.9011 25.2726C61.4701 24.8585 61.0814 24.5493 60.7357 24.345C60.3895 24.1412 60.0395 24.0391 59.6866 24.0391H58.4364V30.6369L61.5088 30.484C62.1724 30.4588 62.9745 30.0317 63.9141 29.2024C64.8531 28.3737 65.697 27.4877 66.4459 26.5443L66.6578 26.6016L65.5772 31.0002L65.5766 30.9996Z" fill="#1A3E10"/>
<path d="M67.8652 30.9603C68.1897 30.2463 68.4125 29.6247 68.5324 29.0959C68.6523 28.5671 68.7128 27.8559 68.7128 26.9638V21.0357C68.7128 20.1437 68.6523 19.439 68.5324 18.9228C68.4125 18.4065 68.1897 17.7789 67.8652 17.0392V17.001H74.0736C76.3336 17.001 77.941 17.3391 78.8939 18.0143C79.8474 18.69 80.3238 19.6334 80.3238 20.8445C80.3238 22.1709 79.7796 23.2383 78.6923 24.0478C77.6044 24.8574 75.9231 25.2622 73.6493 25.2622H72.505V26.9644C72.505 27.8695 72.565 28.5901 72.6855 29.1254C72.8053 29.6607 73.0348 30.2726 73.3744 30.9614V30.9996H67.8652V30.9614V30.9603ZM73.1413 17.4402H72.8447C72.7036 17.4402 72.5904 17.4467 72.5056 17.4593V24.8219H73.1201C73.9108 24.8219 74.5683 24.605 75.0907 24.1718C75.6132 23.7386 75.9704 23.2383 76.1605 22.6707C76.3512 22.1037 76.4468 21.4946 76.4468 20.8445C76.4468 19.7864 76.1714 18.9544 75.6204 18.3486C75.0695 17.7434 74.2432 17.4402 73.1413 17.4402Z" fill="#1A3E10"/>
</svg>
