<svg width="110" height="56" viewBox="0 0 110 56" fill="none" xmlns="http://www.w3.org/2000/svg">
<rect width="110" height="56" rx="8" fill="#F6F6F6"/>
<path d="M43.1738 23.3171C42.4752 20.0599 40.7631 17.1034 38.2229 14.7678L37.5796 15.4872C38.8054 16.6144 39.8287 17.8921 40.6211 19.2851C41.3748 20.6102 41.9188 22.036 42.2379 23.5235C42.546 24.9605 42.6418 26.4395 42.5223 27.9197C42.4045 29.3775 42.0804 30.8118 41.5587 32.183C40.4782 35.023 38.6187 37.4381 36.1809 39.1664C34.8984 40.0758 33.4717 40.7807 31.9409 41.2614C30.5024 41.7131 28.9692 41.9671 27.3747 42.0185C27.38 41.5072 27.3853 40.999 27.3908 40.4932C29.8352 40.4329 32.1125 39.8337 33.995 38.7514C35.9875 37.6061 37.3919 36.0067 38.0565 34.1263C38.5423 32.7517 38.6242 31.2426 38.3 29.641C38.2722 29.504 38.1877 29.3858 38.0678 29.3166C37.948 29.2474 37.8046 29.234 37.6742 29.2797L35.8869 29.9071C36.8908 28.9745 37.6277 27.8784 38.0565 26.6653C38.5423 25.2907 38.6242 23.7816 38.3 22.18C38.2722 22.043 38.1877 21.9248 38.0678 21.8556C37.948 21.7864 37.8046 21.773 37.6742 21.8187L35.7232 22.5037C35.4928 22.5845 34.2704 23.0272 32.8274 23.7979C31.9327 24.2757 31.1549 24.772 30.4991 25.282C31.1443 23.7248 31.4 22.2552 31.2588 20.9001C31.0835 19.2181 29.6305 16.7217 28.85 15.3804C28.7308 15.1755 28.6278 14.9984 28.5584 14.8734C28.251 14.3188 27.9278 13.7654 27.5974 13.2286C27.5248 13.1108 27.4063 13.0302 27.2713 13.0069C27.1363 12.9836 26.9981 13.0202 26.8913 13.1069C26.6871 13.2732 21.9007 17.2484 22.7399 23.2467C22.8371 23.9421 23.0001 24.5882 23.2074 25.1853C22.5787 24.7091 21.843 24.2454 21.0048 23.7976C19.5619 23.0269 18.3394 22.5843 18.1091 22.5034L16.1581 21.8184C16.0278 21.7728 15.8844 21.7861 15.7645 21.8553C15.6448 21.9245 15.56 22.0428 15.5322 22.1797C15.2081 23.7813 15.29 25.2905 15.7757 26.665C16.2045 27.8781 16.9414 28.9742 17.9453 29.9069L16.1581 29.2794C16.0278 29.2338 15.8844 29.2471 15.7645 29.3163C15.6448 29.3855 15.56 29.5038 15.5322 29.6407C15.2081 31.2424 15.29 32.7515 15.7757 34.126C16.4403 36.0067 17.8448 37.6061 19.8372 38.7512C21.7176 39.8322 23.9918 40.4315 26.4331 40.4927C26.4278 41.0009 26.4223 41.5113 26.4171 42.0251C24.7285 41.9943 23.1059 41.7376 21.589 41.2612C20.0579 40.7804 18.6315 40.0755 17.3489 39.1662C14.9112 37.4378 13.0517 35.0228 11.9712 32.1828C11.4495 30.8116 11.1253 29.3773 11.0075 27.9194C10.888 26.4392 10.9836 24.9602 11.2919 23.5232C11.6108 22.0357 12.1548 20.6099 12.9087 19.2849C13.7012 17.8918 14.7245 16.6141 15.9503 15.487L15.307 14.7675C12.7667 17.1037 11.0547 20.0599 10.3561 23.3171C10.0278 24.8478 9.92584 26.4232 10.053 27.9991C10.1782 29.5494 10.5229 31.0748 11.0774 32.5329C12.2266 35.554 14.2056 38.123 16.7999 39.9626C18.1639 40.9298 19.6796 41.6788 21.3055 42.1895C23.0183 42.7273 24.8549 43 26.7647 43C28.6745 43 30.5113 42.7273 32.2239 42.1895C33.8497 41.6788 35.3655 40.9298 36.7294 39.9626C39.3237 38.123 41.3025 35.5538 42.4519 32.5329C43.0067 31.0751 43.3512 29.5497 43.4764 27.9991C43.6035 26.4232 43.5018 24.848 43.1733 23.3171H43.1738ZM27.47 33.0302C28.585 32.9974 29.6645 32.8522 30.687 32.5999C30.049 33.0771 29.5182 33.5666 29.0999 34.0656C28.4485 34.8346 27.888 35.6898 27.4319 36.6033C27.4336 36.4423 27.4353 36.2813 27.437 36.1203C27.448 35.0927 27.4588 34.0649 27.4698 33.03L27.47 33.0302ZM26.4795 36.1098C26.4774 36.3233 26.475 36.537 26.4728 36.7506C26.0043 35.7816 25.4189 34.8756 24.7325 34.0656C24.3143 33.5666 23.7835 33.0768 23.1454 32.5999C24.2137 32.8636 25.344 33.0105 26.5121 33.0343C26.5013 34.0644 26.4903 35.0874 26.4795 36.1101V36.1098ZM37.4558 30.3842C37.6263 31.6037 37.5257 32.75 37.1551 33.7987C36.569 35.4572 35.313 36.8776 33.5229 37.9067C31.7857 38.9054 29.6753 39.461 27.4011 39.5217C27.4015 39.4809 27.402 39.4398 27.4023 39.399C27.8545 37.6614 28.6917 36.0375 29.8271 34.6974C29.8275 34.6967 29.8283 34.6959 29.8287 34.6954C30.5601 33.8225 31.7512 32.9314 33.2737 32.1182C34.6846 31.3645 35.9022 30.9296 36.0363 30.8825L37.4556 30.3842H37.4558ZM33.2737 24.6572C34.6846 23.9035 35.9022 23.4686 36.0366 23.4215L37.4558 22.9232C37.6263 24.1427 37.5257 25.289 37.1551 26.3377C36.569 27.9962 35.313 29.4166 33.5229 30.4457C31.8058 31.4327 29.7243 31.9868 27.4803 32.0582C27.4817 31.9181 27.4832 31.7783 27.4846 31.6379C27.9524 30.0137 28.7573 28.499 29.8271 27.2366C29.8275 27.2359 29.8283 27.2352 29.8287 27.2347C30.5601 26.3618 31.7512 25.4706 33.2737 24.6574V24.6572ZM23.9276 19.4264C24.1962 18.4428 24.6298 17.4713 25.2166 16.5391C25.9011 15.452 26.6383 14.6629 27.0826 14.2341C27.3017 14.6019 27.5165 14.9751 27.7238 15.3491C27.7982 15.4834 27.9036 15.6642 28.0254 15.874C28.7162 17.0607 30.1531 19.5299 30.3066 21.0021C30.4637 22.5087 30.0509 24.2043 29.0803 26.0417C28.4327 27.2675 27.6196 28.3713 26.9814 29.1061C25.9315 28.1717 24.1141 26.1544 23.6882 23.1102C23.5158 21.8784 23.5965 20.6391 23.9276 19.4262V19.4264ZM16.6774 26.3375C16.3068 25.2888 16.2062 24.1424 16.3767 22.923L17.7959 23.4213C17.93 23.4684 19.1477 23.9032 20.5585 24.6569C22.0807 25.4701 23.2721 26.3613 24.0035 27.2342C24.004 27.2349 24.0047 27.2357 24.0052 27.2361C25.1592 28.5981 26.0053 30.2534 26.4522 32.0233C26.453 32.0259 26.4537 32.0284 26.4544 32.0308C26.4566 32.0386 26.4587 32.0463 26.4613 32.0541C26.4621 32.0563 26.4625 32.0587 26.4635 32.0611C24.1768 32.0048 22.0549 31.4485 20.3093 30.445C18.5192 29.4159 17.2632 27.9954 16.6771 26.337L16.6774 26.3375ZM20.3095 37.9064C18.5194 36.8774 17.2635 35.4569 16.6774 33.7985C16.3068 32.7498 16.2062 31.6034 16.3767 30.384L17.7959 30.8823C17.93 30.9294 19.1477 31.3643 20.5585 32.118C22.081 32.9311 23.2721 33.8223 24.0035 34.6952C24.004 34.6959 24.0047 34.6967 24.0052 34.6971C25.1522 36.0508 25.995 37.6945 26.4439 39.4525C26.4436 39.4755 26.4434 39.4986 26.4431 39.5217C24.1641 39.4627 22.0496 38.9066 20.3093 37.9062L20.3095 37.9064Z" fill="url(#paint0_linear_625_6329)"/>
<path d="M52 32.9719C52.2325 32.444 52.3921 31.9953 52.478 31.6266C52.5638 31.2578 52.6072 30.7545 52.6072 30.1173V25.8829C52.6072 25.2457 52.5638 24.7424 52.478 24.3737C52.3917 24.0049 52.2325 23.5566 52 23.0283V23.001H55.9469V23.0283C55.714 23.5472 55.5522 23.9983 55.4611 24.3807C55.37 24.7631 55.3245 25.2641 55.3245 25.8833V30.1177C55.3245 30.7369 55.37 31.2379 55.4611 31.6203C55.5522 32.0027 55.714 32.4538 55.9469 32.9727V33H52V32.9727V32.9719Z" fill="#1A3E10"/>
<path d="M57.2217 32.9719C57.4542 32.462 57.6138 32.0179 57.6996 31.6402C57.7855 31.2625 57.8289 30.7545 57.8289 30.1173V25.8829C57.8289 25.2457 57.7855 24.7424 57.6996 24.3737C57.6133 24.0049 57.4542 23.5566 57.2217 23.0283V23.001H61.1685V23.0283C60.9356 23.5472 60.7739 23.9983 60.6828 24.3807C60.5917 24.7631 60.5462 25.2641 60.5462 25.8833V27.741H64.9029V25.8833C64.9029 25.2551 64.8595 24.7564 64.7736 24.3877C64.6878 24.019 64.5234 23.566 64.2801 23.0287V23.0014H68.2269V23.0287C67.994 23.5387 67.8344 23.9874 67.749 24.3741C67.6627 24.7611 67.6197 25.2645 67.6197 25.8833V30.1177C67.6197 30.7369 67.6627 31.2403 67.749 31.6269C67.8348 32.014 67.994 32.4627 68.2269 32.9723V32.9996H64.2801V32.9723C64.5229 32.435 64.6873 31.982 64.7736 31.6133C64.8595 31.2445 64.9029 30.7459 64.9029 30.1177V28.0551H60.5462V30.1177C60.5462 30.7369 60.5917 31.2379 60.6828 31.6203C60.7739 32.0027 60.9356 32.4538 61.1685 32.9727V33H57.2217V32.9727V32.9719Z" fill="#1A3E10"/>
<path d="M76.4707 32.9994H72.5239V32.9721C72.7563 32.4621 72.9186 32.0158 73.0096 31.6334C73.1007 31.251 73.1463 30.7453 73.1463 30.1171V23.2872L72.4024 23.3282C72.281 23.3371 72.1465 23.3785 72.0004 23.4511C71.8533 23.524 71.6916 23.6446 71.5146 23.8132C71.3372 23.9817 71.188 24.1296 71.0666 24.2572C70.9451 24.3848 70.7781 24.5807 70.5656 24.8444C70.3531 25.1086 70.2061 25.2951 70.1254 25.4044C70.0443 25.5136 69.8925 25.7185 69.67 26.0189C69.4475 26.3194 69.3256 26.4879 69.3057 26.5242L69.1387 26.4832L69.8066 23H79.188L79.8559 26.4832L79.6889 26.5242C79.6586 26.4879 79.5623 26.3603 79.4005 26.1418C79.2387 25.9233 79.1273 25.7708 79.0666 25.6841C79.0058 25.5975 78.8944 25.4473 78.7326 25.2335C78.5704 25.0196 78.4442 24.86 78.3531 24.7555C78.262 24.6509 78.1406 24.512 77.9888 24.3387C77.837 24.1659 77.7081 24.0313 77.6014 23.9357C77.4952 23.8401 77.3789 23.7398 77.2523 23.6352C77.1257 23.5307 77.0068 23.4554 76.8953 23.4097C76.7839 23.364 76.6828 23.3367 76.5917 23.3278L75.8631 23.2868V30.1167C75.8631 30.7449 75.906 31.2483 75.9919 31.626C76.0778 32.0041 76.237 32.4524 76.4703 32.9713V32.9987L76.4707 32.9994Z" fill="#1A3E10"/>
<path d="M89.2068 32.999H80.7666V32.9717C80.9991 32.4071 81.1587 31.9451 81.2446 31.5854C81.3304 31.2256 81.3738 30.7547 81.3738 30.1717V25.8277C81.3738 25.418 81.3456 25.0489 81.2905 24.7211C81.2346 24.3934 81.1739 24.1292 81.1084 23.929C81.0424 23.7289 80.9284 23.4284 80.7666 23.0273V23H88.6451L89.2068 25.6365L89.055 25.6775C88.9436 25.5866 88.6473 25.3088 88.1672 24.844C87.6862 24.3797 87.2763 24.0246 86.9376 23.7784C86.5984 23.5326 86.3026 23.4007 86.0498 23.3824L84.0915 23.2595V27.7127H84.9871C85.1389 27.7127 85.296 27.6854 85.4577 27.6308C85.6195 27.5762 85.7843 27.4895 85.9513 27.3713C86.1183 27.2531 86.2571 27.1481 86.3685 27.0572C86.48 26.9663 86.624 26.8387 86.8014 26.6748C86.9784 26.5109 87.1024 26.4017 87.1735 26.3471H87.3253V29.4479H87.1735C87.0825 29.3843 86.8825 29.2044 86.5737 28.9083C86.2649 28.6125 85.9864 28.3917 85.7388 28.2457C85.4907 28.1002 85.24 28.0272 84.9871 28.0272H84.0915V32.74L86.2926 32.6307C86.768 32.6128 87.3427 32.3076 88.0158 31.7153C88.6885 31.1234 89.2931 30.4905 89.8296 29.8166L89.9814 29.8576L89.2073 32.9994L89.2068 32.999Z" fill="#1A3E10"/>
<path d="M90.8457 32.9719C91.0782 32.462 91.2378 32.0179 91.3237 31.6402C91.4095 31.2625 91.4529 30.7545 91.4529 30.1173V25.8829C91.4529 25.2457 91.4095 24.7424 91.3237 24.3737C91.2378 24.0049 91.0782 23.5566 90.8457 23.0283V23.001H95.2935C96.9126 23.001 98.0641 23.2425 98.7468 23.7248C99.4299 24.2075 99.7713 24.8813 99.7713 25.7464C99.7713 26.6937 99.3813 27.4562 98.6024 28.0344C97.823 28.6127 96.6185 28.9018 94.9895 28.9018H94.1697V30.1177C94.1697 30.7642 94.2127 31.2789 94.299 31.6613C94.3849 32.0437 94.5492 32.4807 94.7926 32.9727V33H90.8457V32.9727V32.9719ZM94.6256 23.3147H94.4131C94.312 23.3147 94.2309 23.3194 94.1702 23.3283V28.5873H94.6104C95.1768 28.5873 95.6479 28.4324 96.0222 28.123C96.3965 27.8136 96.6524 27.4562 96.7886 27.0508C96.9252 26.6458 96.9937 26.2107 96.9937 25.7464C96.9937 24.9906 96.7964 24.3963 96.4017 23.9636C96.007 23.5312 95.415 23.3147 94.6256 23.3147Z" fill="#1A3E10"/>
<defs>
<linearGradient id="paint0_linear_625_6329" x1="26.7647" y1="13" x2="26.7647" y2="43" gradientUnits="userSpaceOnUse">
<stop stop-color="#EFE8DA"/>
<stop offset="0.245" stop-color="#EDDCBA"/>
<stop offset="1" stop-color="#D08F47"/>
</linearGradient>
</defs>
</svg>
