<?xml version="1.0" encoding="UTF-8"?>
<svg id="_Слой_1" data-name="Слой_1" xmlns="http://www.w3.org/2000/svg" viewBox="0 0 130 26">
  <defs>
    <style>
      .cls-1 {
        fill: #fff;
      }
    </style>
  </defs>
  <g>
    <path class="cls-1" d="M117.54,17.73c.29.21.6.46.89.81.48.57.91,1.19,1.31,1.84-.29-.72-.67-1.46-1.19-2.05-.34-.38-.71-.57-1.01-.6Z"/>
    <path class="cls-1" d="M116.92,18.23c-.03.31.07.7.36,1.12.45.64,1.08,1.17,1.72,1.62-.55-.53-1.07-1.08-1.49-1.68-.26-.36-.46-.72-.58-1.05Z"/>
    <path class="cls-1" d="M119.09,20.12c-.29-.45-.62-.93-.96-1.36,0-.02-.02-.02-.02-.03v-.02c-.24-.29-.48-.55-.67-.69-.12-.07-.21-.1-.24-.07-.05.02-.03.1.02.24.09.22.29.5.53.81.02.02.03.03.02.07.36.43.74.86,1.12,1.24.22.24.57.62.69.7.05.02.07.02.07.02,0,0,0-.03-.02-.07-.05-.15-.34-.57-.53-.84Z"/>
    <path class="cls-1" d="M116.97,19.44c-.19-.26-.31-.53-.36-.79-.1.29-.07.62.12.91.31.46.83.81,1.36,1.05-.43-.34-.83-.74-1.12-1.17Z"/>
    <path class="cls-1" d="M116.54,7.48v.02c-.12.38-.22.72-.22.95,0,.14.02.22.07.24.03.02.1-.03.19-.15.14-.19.27-.52.39-.88.02-.02.02-.03.03-.05.17-.53.33-1.1.45-1.62.09-.33.21-.81.22-.96,0-.05,0-.07-.02-.07-.02,0-.02.02-.05.05-.09.12-.28.58-.41.89-.22.48-.45,1.01-.64,1.55t-.02.03Z"/>
    <path class="cls-1" d="M119.62,19.4c-.14-.57-.36-1.15-.74-1.55-.26-.26-.57-.36-.86-.33.24.12.48.29.71.53.36.4.65.84.89,1.34Z"/>
    <path class="cls-1" d="M116,8.51c.02-.36.09-.76.21-1.19.21-.7.5-1.41.84-2.08-.45.64-.88,1.36-1.08,2.1-.14.48-.1.89.03,1.17Z"/>
    <path class="cls-1" d="M116.76,8.78c.29-.14.57-.45.76-.91.29-.72.4-1.55.43-2.32-.16.74-.34,1.48-.62,2.17-.17.43-.36.79-.57,1.07Z"/>
    <path class="cls-1" d="M124.73,14.16c-.52-.26-1.1-.48-1.65-.45-.34.02-.62.19-.81.45.24-.1.53-.17.86-.19.53-.02,1.07.05,1.6.19Z"/>
    <path class="cls-1" d="M123.27,15.69c-.45-.03-.84-.12-1.17-.24.22.22.58.4,1.08.45.77.07,1.58-.07,2.34-.24-.76.07-1.51.1-2.25.03Z"/>
    <path class="cls-1" d="M123.07,16.17c-.33-.03-.6-.12-.84-.24.16.26.41.45.77.5.55.07,1.14-.1,1.68-.34-.55.1-1.08.14-1.62.09Z"/>
    <path class="cls-1" d="M129.97,12.18c-.14-3.54-1.27-6.39-3.42-8.59-.02-.02-.03-.03-.03-.05l-.02-.02C124.15,1.18,121.2.03,117.62.03h-.03c-3.59,0-6.53,1.17-8.85,3.49l-.02.02s-.03.03-.03.05c-2.15,2.18-3.3,5.05-3.42,8.59-.02.24-.02.48-.02.72s0,.48.02.72c.14,3.54,1.31,6.46,3.49,8.73,2.34,2.42,5.29,3.64,8.85,3.64h.03c3.58,0,6.53-1.2,8.85-3.64,2.18-2.27,3.35-5.17,3.49-8.73.02-.24.02-.48.02-.72-.02-.26-.02-.5-.03-.72ZM122.75,5.4c.15-.36.52-.64.95-.64.72,0,1.26.55,1.72,1.07.26.27.43.64.31.88-.09.26-.48.38-.84.38-.71,0-1.46-.02-1.96-.55-.29-.31-.34-.77-.17-1.13ZM125.65,9.7c-.41.91-.89,1.89-1.81,2.41-.53.31-1.08.24-1.39-.07-.33-.29-.43-.82-.15-1.39.45-.93,1.38-1.5,2.25-1.96.46-.26.98-.4,1.19-.17.24.19.14.7-.09,1.19ZM120.37,4.21c.17-.1.4-.09.58.12,0,.02.02.03.04.05,0,.02.02.02.02.03.02.03.03.05.05.09,0,.02.02.02.02.03.09.17.21.79,0,.95-.02,0-.1.05-.12.05-.24.09-.69-.38-.77-.55,0,0-.02-.02-.02-.03-.02-.03-.02-.05-.03-.09-.02-.02-.02-.03.02-.03,0-.03-.02-.05-.02-.07-.07-.27.05-.46.24-.55ZM115.18,6.84v-.02s.02-.03.02-.05c.29-.81.88-1.53,1.5-2.17.34-.43.86-1.07,1.22-1.17.12-.03.21-.03.27,0,.07.03.14.07.21.17.21.31.22,1.12.24,1.67.09.89.12,1.82-.16,2.63,0,.02-.02.03-.02.05v.02c-.19.55-.53,1-1.14,1.15-.34.09-.72.07-1.08-.05-.36-.12-.67-.34-.88-.64-.38-.48-.38-1.05-.19-1.6ZM119.38,12.73c.55.62.5,1.5.41,2.3-.03.43-.21.86-.52.95-.29.1-.69-.14-.98-.45-.55-.58-1.12-1.27-1.08-2.08.04-.5.4-.89.84-1.03h.03c.43-.15.96-.07,1.29.31ZM114.51,10.97c.58-.38,1.26-.76,1.96-.57.41.12.69.48.74.88.07.4-.09.82-.46,1.05-.62.36-1.36.19-2.03,0-.36-.1-.69-.31-.72-.58-.07-.28.21-.57.52-.77ZM112.24,4.49s.03-.02.05-.03c0,0,.02-.02.03-.02.03-.02.07-.02.1-.03.02,0,.04-.02.05-.02.21-.07.88-.07,1,.19,0,.03.03.12.03.14.04.29-.53.64-.74.7-.02.02-.03.02-.05.02-.03,0-.07.02-.1.02h-.1c-.31.02-.48-.15-.53-.36-.07-.21,0-.45.26-.6ZM109.4,8.03c.09-.31.64-.43,1.19-.41,1.05.02,2.2.07,3.08.72.53.4.7.95.53,1.37v.03c-.14.45-.62.76-1.27.74-1.1-.05-2.03-.72-2.85-1.37-.45-.34-.79-.79-.67-1.08ZM113.24,12.36c.02.1.02.19,0,.26-.02.07-.07.14-.14.21-.22.19-.53.19-.83.1-.36-.1-.79-.36-.89-.7-.02-.05-.02-.1,0-.15.02-.05.03-.1.09-.14.26-.22.76-.22,1.14-.1.29.09.55.26.64.53ZM108.78,14.91c-.31-.07-.5-.48-.57-.91-.14-.81-.22-1.68.28-2.32.31-.4.82-.52,1.27-.38h.03c.45.1.83.48.89.98.1.82-.43,1.53-.95,2.15-.28.33-.65.58-.96.48ZM109.56,17.64c-.07-.38.15-.72.38-1.01.12-.17.29-.29.43-.26.15.03.26.22.29.41.09.38.15.77-.07,1.08-.14.19-.38.26-.58.21-.22-.03-.41-.21-.45-.43ZM111.7,20.52s-.03.02-.05.03c0,0-.02.02-.03.02-.03.02-.07.02-.1.03-.02,0-.03.02-.05.02-.21.05-.89.03-1-.22-.02-.03-.03-.12-.03-.14-.03-.27.55-.62.76-.67.02-.02.03-.02.05-.02.03,0,.07-.02.1-.02h.12c.29,0,.48.17.52.38.05.21-.02.45-.28.58ZM115.03,21.33c-.19.64-.65.98-1.12.96h-.03c-.45.02-.93-.33-1.12-.96-.33-1.05.02-2.15.34-3.14.17-.52.46-1,.79-.98.31-.03.62.45.79.98.33.98.65,2.1.34,3.14ZM115.32,15.68c-.74.48-1.56,1-2.46.89-.53-.07-.91-.45-1-.88v-.03c-.12-.43.07-.93.53-1.22.76-.48,1.74-.38,2.6-.24.46.07.91.26.96.57.09.29-.24.65-.64.91ZM120.79,22.05c-.03.1-.07.17-.14.22-.07.05-.14.09-.26.09-.4.02-1.08-.4-1.55-.69-.79-.38-1.6-.88-2.13-1.53,0-.02-.02-.03-.02-.03-.02,0-.02-.02-.02-.02-.38-.46-.57-1-.36-1.58.1-.34.31-.65.62-.89.29-.24.64-.4,1-.41.62-.05,1.1.24,1.46.7.02,0,.02.02.02.02.02.02.02.03.03.05.52.67.81,1.56,1.02,2.42.17.52.43,1.29.33,1.65ZM119.72,11.31c-.31-.1-.38-.67-.31-1.22.12-1.03.29-2.18,1.02-2.97.45-.48,1.01-.6,1.43-.4h.02c.43.17.7.69.62,1.34-.14,1.07-.91,1.94-1.63,2.7-.38.4-.86.7-1.13.55ZM123.26,19.02c-.12.36-.41.76-.76.84-.07,0-.1,0-.16-.02-.03-.02-.09-.05-.12-.1-.21-.27-.17-.77-.05-1.12.09-.29.29-.55.57-.6.1-.02.19-.02.26.02.07.03.14.07.21.15.17.22.16.55.05.82ZM127.52,15.48c-.24.31-1.02.55-1.53.72-.83.34-1.72.64-2.56.62-.02,0-.05,0-.03.02h-.02c-.58-.02-1.12-.22-1.43-.76-.21-.31-.29-.67-.27-1.05,0-.4.12-.74.34-1.03.36-.52.89-.67,1.48-.65h.07c.86.03,1.72.4,2.51.81.5.21,1.26.52,1.46.82.07.1.09.19.09.26s-.03.15-.1.24Z"/>
    <path class="cls-1" d="M125.94,15.16c-.14-.05-.64-.1-.98-.14-.53-.07-1.1-.14-1.67-.15h-.05c-.4-.02-.74-.02-.96.05-.14.03-.21.09-.21.14s.07.09.21.14c.22.07.58.1.96.12.02,0,.03,0,.03.02.55.02,1.14,0,1.67-.03.34-.02.84-.03,1-.07.03-.02.05-.02.05-.03s0-.02-.05-.03Z"/>
    <path class="cls-1" d="M117.29,8.8c.29-.07.55-.26.69-.58.22-.52.24-1.13.19-1.7-.07.55-.19,1.08-.39,1.56-.12.29-.29.53-.48.72Z"/>
    <path class="cls-1" d="M125.56,14.69c-.74-.24-1.55-.45-2.32-.43-.5.02-.88.15-1.1.38.33-.1.74-.15,1.19-.15.74,0,1.49.07,2.23.21Z"/>
    <path class="cls-1" d="M115.66,7.34c.14-.52.38-1.01.65-1.48-.41.43-.77.93-.91,1.46-.09.34,0,.65.19.89-.03-.27-.02-.57.07-.88Z"/>
  </g>
  <path class="cls-1" d="M100.49,18.47c-1.72,1.31-4.07,1.79-6.5.93-1.6-.57-3.39-2.39-3.94-4-1.63-4.79,1.86-9.26,6.38-9.26,1.48,0,2.84.46,3.94,1.27,1.07.77,2.53.65,3.46-.29l.55-.55c1.14-1.15,1-3.06-.29-4.02C101.83.86,99.03-.09,95.99.02c-6.79.24-12.26,5.83-12.43,12.67-.17,7.32,5.66,13.3,12.86,13.3,2.91,0,5.61-.98,7.75-2.63,1.29-.98,1.41-2.89.28-4.02l-.57-.58c-.93-.91-2.37-1.05-3.39-.27Z"/>
  <path class="cls-1" d="M.9,22.06c-.52-.62-1.05-1.46-.86-2.3.21-.82,1.05-1.68,1.7-2.2,1.7-1.32,3.15-.02,4.4,1.2,1.31,1.27,3.11,2.05,4.9,1.2,1.26-.6,1.87-2.47.65-3.42-.69-.53-1.6-.76-2.44-.93-1.08-.22-2.15-.52-3.2-.89-2.03-.74-3.85-1.67-4.85-3.64C-.56,7.59.8,3.16,4.2,1.2c3.06-1.77,8.03-1.56,10.93.48.88.62,2.17,1.51,1.89,2.7-.33,1.46-1.96,3.52-3.66,3.16-.98-.21-1.48-.89-2.27-1.39-.72-.45-1.68-.55-2.51-.43-1.91.31-2.8,2.42-1.01,3.56.81.52,1.75.65,2.7.82,1.12.21,2.24.48,3.3.84,2.01.67,3.63,1.6,4.44,3.63.84,2.06.7,4.67-.24,6.67-1.03,2.13-3.01,3.49-5.26,4.19-4.23,1.36-8.8-.02-11.61-3.37Z"/>
  <path class="cls-1" d="M81.09,7.99c-.5-1.43-1.17-2.61-2.01-3.51-.84-.91-1.84-1.67-2.99-2.27-1.15-.6-2.36-1.03-3.59-1.27-1.24-.24-2.54-.36-3.92-.36h-6.55c-1.01,0-1.84.88-1.84,1.96v20.83c0,1.08.83,1.96,1.84,1.96h6.81c1.67,0,3.25-.24,4.75-.74,1.51-.48,2.89-1.22,4.14-2.2,1.25-.98,2.25-2.29,2.99-3.92.74-1.63,1.12-3.49,1.12-5.59.02-1.84-.24-3.47-.74-4.9ZM73.85,18.08c-1.44,1.07-3.28,1.6-5.54,1.6h-2.13V6.12h2.25c1.03,0,1.98.1,2.84.33.86.22,1.67.58,2.39,1.08.74.5,1.31,1.2,1.72,2.11.41.91.62,1.98.62,3.23.02,2.41-.7,4.14-2.15,5.21Z"/>
  <path class="cls-1" d="M36.58,25.32h-14.36c-1.17,0-2.11-.88-2.11-1.96V2.55c0-1.08.95-1.96,2.11-1.96h14.18c1.17,0,2.11.88,2.11,1.96v1.67c0,1.08-.95,1.96-2.11,1.96h-10.26v3.95h7.39c1.17,0,2.11.88,2.11,1.96v1.55c0,1.08-.95,1.96-2.29,1.96h-7.22v4.11h10.44c1.17,0,2.11.88,2.11,1.96v1.7c0,1.08-.95,1.96-2.11,1.96Z"/>
  <path class="cls-1" d="M56.69,25.31h-14.36c-1.17,0-2.11-.88-2.11-1.96V2.52c0-1.08.95-1.96,2.11-1.96h14.18c1.17,0,2.11.88,2.11,1.96v1.67c0,1.08-.95,1.96-2.11,1.96h-10.26v3.95h7.39c1.17,0,2.11.88,2.11,1.96v1.56c0,1.08-.95,1.96-2.29,1.96h-7.22v4.11h10.44c1.17,0,2.11.88,2.11,1.96v1.7c0,1.08-.95,1.96-2.11,1.96Z"/>
</svg>