<svg width="38" height="34" viewBox="0 0 38 34" fill="none" xmlns="http://www.w3.org/2000/svg">
<path d="M37.597 11.6927C36.8052 8.00128 34.8648 4.65054 31.986 2.00348L31.2569 2.81887C32.6461 4.09631 33.8058 5.54436 34.7039 7.12314C35.5581 8.62486 36.1746 10.2408 36.5363 11.9266C36.8855 13.5552 36.994 15.2314 36.8586 16.909C36.7251 18.5612 36.3578 20.1868 35.7665 21.7408C34.542 24.9594 32.4345 27.6965 29.6717 29.6553C28.2181 30.6859 26.6012 31.4847 24.8663 32.0296C23.2361 32.5415 21.4985 32.8293 19.6913 32.8877C19.6973 32.3081 19.7033 31.7321 19.7095 31.1589C22.4799 31.0907 25.0609 30.4115 27.1944 29.185C29.4525 27.8869 31.0441 26.0742 31.7974 23.9431C32.3479 22.3853 32.4407 20.6749 32.0733 18.8598C32.0418 18.7046 31.9461 18.5706 31.8101 18.4921C31.6745 18.4137 31.5119 18.3986 31.364 18.4503L29.3385 19.1614C30.4762 18.1044 31.3114 16.8622 31.7974 15.4873C32.3479 13.9295 32.4407 12.2191 32.0733 10.404C32.0418 10.2488 31.9461 10.1147 31.8101 10.0363C31.6745 9.95789 31.5119 9.94275 31.364 9.99449L29.1529 10.7708C28.8919 10.8624 27.5064 11.3641 25.8711 12.2376C24.8571 12.7792 23.9755 13.3416 23.2323 13.9195C23.9636 12.1547 24.2534 10.4893 24.0933 8.95344C23.8946 7.04719 22.2479 4.21794 21.3633 2.69778C21.2282 2.46552 21.1115 2.26491 21.0328 2.12318C20.6844 1.49465 20.3181 0.867484 19.9437 0.259036C19.8615 0.125568 19.7272 0.0342042 19.5741 0.00778578C19.4211 -0.0186326 19.2645 0.0229213 19.1435 0.121165C18.9121 0.309671 13.4875 4.81483 14.4385 11.6129C14.5487 12.401 14.7335 13.1333 14.9684 13.81C14.2559 13.2704 13.4221 12.7448 12.4721 12.2373C10.8368 11.3638 9.45131 10.8622 9.19029 10.7705L6.97915 9.99421C6.83154 9.94248 6.66901 9.95761 6.53307 10.036C6.3974 10.1145 6.30135 10.2485 6.26987 10.4037C5.90248 12.2189 5.99528 13.9292 6.54582 15.487C7.03179 16.8619 7.86697 18.1041 9.00469 19.1611L6.97915 18.45C6.83154 18.3983 6.66901 18.4134 6.53307 18.4919C6.3974 18.5703 6.30135 18.7043 6.26987 18.8595C5.90248 20.6747 5.99528 22.385 6.54582 23.9428C7.29906 26.0742 8.89073 27.8869 11.1488 29.1847C13.2799 30.4099 15.8573 31.089 18.6242 31.1584C18.6182 31.7343 18.612 32.3128 18.606 32.8951C16.6922 32.8602 14.8534 32.5693 13.1342 32.0294C11.399 31.4845 9.78235 30.6856 8.32879 29.655C5.56602 27.6962 3.45854 24.9591 2.23399 21.7405C1.64274 20.1865 1.27535 18.5609 1.14185 16.9087C1.00646 15.2311 1.11472 13.5549 1.4642 11.9263C1.82563 10.2405 2.44211 8.62458 3.29655 7.12286C4.19468 5.54409 5.35438 4.09603 6.74363 2.81859L6.01454 2.0032C3.13565 4.65082 1.19531 8.00128 0.403542 11.6927C0.0315375 13.4275 -0.0840526 15.2129 0.060028 16.9989C0.201938 18.756 0.592665 20.4848 1.22108 22.1373C2.52351 25.5612 4.76639 28.4728 7.70661 30.5576C9.25242 31.6537 10.9703 32.5027 12.8129 33.0814C14.7541 33.691 16.8355 34 19 34C21.1644 34 23.2461 33.691 25.187 33.0814C27.0297 32.5027 28.7475 31.6537 30.2933 30.5576C33.2336 28.4728 35.4762 25.561 36.7789 22.1373C37.4076 20.4851 37.798 18.7563 37.9399 16.9989C38.084 15.2129 37.9687 13.4278 37.5964 11.6927H37.597ZM19.7993 22.7009C21.063 22.6638 22.2864 22.4992 23.4453 22.2133C22.7222 22.754 22.1206 23.3088 21.6466 23.8743C20.9083 24.7459 20.2731 25.7151 19.7562 26.7504C19.7581 26.5679 19.76 26.3854 19.7619 26.203C19.7744 25.0384 19.7866 23.8735 19.7991 22.7006L19.7993 22.7009ZM18.6768 26.1912C18.6744 26.4331 18.6717 26.6752 18.6692 26.9174C18.1382 25.8191 17.4748 24.7924 16.6969 23.8743C16.2228 23.3088 15.6213 22.7537 14.8982 22.2133C16.1089 22.5121 17.3899 22.6786 18.7137 22.7056C18.7015 23.8729 18.689 25.0323 18.6768 26.1914V26.1912ZM31.1166 19.7021C31.3098 21.0842 31.1958 22.3833 30.7758 23.5719C30.1115 25.4514 28.6881 27.0613 26.6593 28.2276C24.6905 29.3594 22.2986 29.9891 19.7212 30.0579C19.7217 30.0116 19.7223 29.9651 19.7225 29.9189C20.2351 27.9496 21.184 26.1092 22.4707 24.5904C22.4712 24.5895 22.472 24.5887 22.4726 24.5882C23.3015 23.5989 24.6514 22.5889 26.3768 21.6673C27.9758 20.8131 29.3559 20.3202 29.5078 20.2668L31.1163 19.7021H31.1166ZM26.3768 13.2115C27.9758 12.3573 29.3559 11.8644 29.5081 11.811L31.1166 11.2463C31.3098 12.6283 31.1958 13.9275 30.7758 15.1161C30.1115 16.9956 28.6881 18.6055 26.6593 19.7718C24.7133 20.8904 22.3543 21.5184 19.811 21.5993C19.8126 21.4405 19.8143 21.282 19.8159 21.123C20.3461 19.2822 21.2583 17.5656 22.4707 16.1348C22.4712 16.134 22.472 16.1332 22.4726 16.1326C23.3015 15.1433 24.6514 14.1334 26.3768 13.2118V13.2115ZM15.7846 7.2833C16.0891 6.1685 16.5805 5.06746 17.2455 4.011C18.0213 2.77896 18.8567 1.88459 19.3603 1.3986C19.6086 1.81552 19.852 2.23849 20.087 2.66228C20.1713 2.81446 20.2907 3.01948 20.4288 3.25725C21.2117 4.60211 22.8402 7.40053 23.0142 9.06902C23.1922 10.7766 22.7244 12.6982 21.6244 14.7806C20.8904 16.1698 19.9689 17.4208 19.2455 18.2535C18.0557 17.1946 15.996 14.9083 15.5133 11.4582C15.3179 10.0622 15.4094 8.65761 15.7846 7.28303V7.2833ZM7.56768 15.1158C7.14765 13.9273 7.03369 12.6281 7.22688 11.2461L8.83538 11.8108C8.98733 11.8641 10.3674 12.357 11.9663 13.2112C13.6915 14.1328 15.0417 15.1428 15.8706 16.1321C15.8712 16.1329 15.872 16.1337 15.8725 16.1343C17.1804 17.6778 18.1393 19.5538 18.6459 21.5597C18.6467 21.5627 18.6475 21.5655 18.6483 21.5682C18.6508 21.577 18.6532 21.5858 18.6562 21.5946C18.657 21.5971 18.6575 21.5999 18.6586 21.6026C16.0671 21.5388 13.6622 20.9083 11.6839 19.7709C9.65509 18.6047 8.23165 16.9948 7.56741 15.1153L7.56768 15.1158ZM11.6842 28.2273C9.65536 27.061 8.23192 25.4512 7.56768 23.5716C7.14765 22.3831 7.03369 21.0839 7.22688 19.7019L8.83538 20.2666C8.98733 20.32 10.3674 20.8128 11.9663 21.667C13.6918 22.5886 15.0417 23.5986 15.8706 24.5879C15.8712 24.5887 15.872 24.5895 15.8725 24.5901C17.1725 26.1243 18.1276 27.9871 18.6364 29.9795C18.6361 30.0056 18.6358 30.0317 18.6356 30.0579C16.0527 29.991 13.6562 29.3608 11.6839 28.227L11.6842 28.2273Z" fill="white"/>
</svg>
